<svg width="196" height="88" viewBox="0 0 196 88" fill="none" xmlns="http://www.w3.org/2000/svg">
    <g clip-path="url(#clip0_430_7057)">
        <path fill-rule="evenodd" clip-rule="evenodd" d="M11.8691 31.34C11.5591 31.71 11.3391 31.89 10.9291 32.14C10.3391 32.49 9.93909 32.63 9.24909 32.68H3.75909C3.02909 32.99 2.65909 33.79 2.91909 34.55C3.15909 35.27 3.99909 35.57 4.54909 35.57H25.6591C26.5091 35.52 26.5691 35.66 27.1391 35.57C27.4591 35.51 27.6491 35.51 27.9291 35.35C28.4191 35.08 28.6091 34.91 28.8191 35.19C28.9991 35.42 28.9291 35.79 28.6691 35.93L26.3491 38.13C25.9691 38.55 25.6791 38.76 25.1591 38.98C24.6791 39.19 24.3591 39.26 23.8291 39.25H7.86909C7.51909 39.79 7.45909 40.09 7.71909 40.48C9.69909 43.48 16.7691 43.64 22.1991 43.58C26.8691 43.54 37.0291 43.26 35.7991 37.59C35.5191 36.32 34.1091 35.63 32.7291 34.86C30.6091 33.68 28.6791 33.2 26.3591 32.45C25.7891 32.27 25.1891 31.77 25.6091 31.01C25.8891 30.51 26.2791 30.46 26.6991 30.1C27.8091 29.15 28.5791 28.71 29.4691 27.59C30.3591 26.46 29.5591 25.31 28.9691 24.06C28.4291 22.89 27.6391 21.92 26.8491 21.54C26.5691 21.41 26.3591 21.65 26.0991 21.81L24.3691 23.52C24.2191 23.71 24.1191 23.81 23.9191 23.95C23.7191 24.1 23.6191 24.31 23.3791 24.27C23.1591 24.23 23.0691 24.05 22.9791 23.84C22.9091 23.67 23.0191 23.52 22.9291 23.36C22.8191 23.16 22.6191 23.18 22.4391 23.04C21.7191 22.46 21.3891 22.3 21.3791 20.9C21.3791 19.56 22.3891 18.28 23.4791 17.37C23.7391 17.15 24.0491 17.02 24.3191 17.21C24.6591 17.45 24.3591 17.92 24.1691 18.28C23.6291 19.29 23.6191 20.29 24.4691 20.79C24.9691 21.08 25.4691 21.2 25.9491 20.85C26.8391 20.21 27.2791 19.73 27.8791 19.03C28.2191 18.62 28.6491 18.4 29.1191 18.6C30.3591 19.14 31.1191 20.13 31.7391 21.54C32.6391 23.59 32.7191 25.93 31.4891 27.27C30.7791 28.04 30.1891 28.51 29.9091 28.82C29.6591 29.09 29.2691 29.51 30.1991 29.89C33.6691 31.27 38.0091 32.89 37.7591 36.53C37.1591 45.42 24.0691 47.98 17.8391 48.09C18.9791 51.51 24.8591 50.98 29.2091 50.76C36.0691 50.42 45.5891 47.01 44.7291 41.72C44.2891 38.98 41.5191 38.51 38.9991 37.01C38.6491 36.8 38.3791 36.61 38.3091 36.2C38.2291 35.78 38.4091 35.47 38.7091 35.19C39.2491 34.65 39.4291 34.44 39.8891 33.96C40.4091 33.42 40.7691 33.17 41.2291 32.57C41.4791 32.23 41.6991 32.11 41.8291 31.66C42.0291 30.96 41.6491 29.64 40.9791 28.72C40.3791 27.87 39.6991 26.74 39.1991 26.79C38.9591 26.82 38.8391 26.94 38.6091 26.95C38.3191 26.97 38.0291 27.05 37.8691 26.79C37.7091 26.53 37.7991 26.18 38.0691 26.04L40.9391 23.47C41.1591 23.23 41.4091 23.15 41.7291 23.2C41.9991 23.24 42.1191 23.38 42.3191 23.58C43.8991 25.08 44.9391 26.36 44.9891 28.08C45.0491 30.08 43.5391 30.78 42.6191 32.52C42.3891 32.96 41.9791 33.15 42.0291 33.64C42.0691 34.15 42.4791 34.33 42.8691 34.65C46.2791 37.49 48.0591 41.13 45.2891 45.3C41.7891 50.57 39.1991 51.62 33.2791 54.18C23.7391 58.3 12.9191 55.57 16.2791 48.61C16.3491 48.46 16.4391 48.36 16.3291 48.24C16.2791 48.19 16.1291 48.19 15.9291 48.18C12.6291 47.97 9.15909 47.64 6.53909 45.13C5.15909 43.8 5.50909 41.83 6.14909 39.88C6.22909 39.62 6.58909 39.43 6.39909 39.24C6.31909 39.16 6.25909 39.14 6.14909 39.13H5.35909C1.13909 39.18 0.0690897 37.19 -0.000910275 36.16C-0.0409103 35.44 0.15909 34.93 0.68909 34.45L4.83909 30.65C5.36909 30.27 5.70909 30.11 6.32909 29.9C6.91909 29.71 7.28909 29.65 7.90909 29.63H11.3691C11.5991 29.67 11.7491 29.66 11.9691 29.58C12.1391 29.51 12.2391 29.45 12.3591 29.31L12.8491 28.93C12.9391 28.84 13.0591 28.77 13.1991 28.77C13.4791 28.77 13.6991 29.01 13.6991 29.31C13.6991 29.49 13.6091 29.66 13.4791 29.76L11.8691 31.34Z" fill="white"/>
        <path fill-rule="evenodd" clip-rule="evenodd" d="M49.0381 33.1099C48.8481 33.1099 48.5681 33.1999 48.5681 33.1999L47.3681 34.5099C47.1481 34.7499 46.7981 34.7499 46.5781 34.5099L45.3681 33.1999C45.1481 32.9699 45.1481 32.5799 45.3681 32.3399L46.5781 31.0399C46.7981 30.7999 47.1581 30.7999 47.3681 31.0399L48.5781 32.3499C48.7181 32.4299 48.8381 32.6499 49.0481 32.6399C49.2481 32.6299 49.4681 32.3499 49.4681 32.3499L50.6781 31.0399C50.8981 30.7999 51.2581 30.7999 51.4681 31.0399L52.6781 32.3399C52.8881 32.5799 52.8881 32.9599 52.6781 33.1999L51.4681 34.5099C51.2581 34.7499 50.8981 34.7499 50.6781 34.5099L49.4681 33.1999C49.4681 33.1999 49.2081 33.1199 49.0481 33.1099H49.0381Z" fill="white"/>
        <path fill-rule="evenodd" clip-rule="evenodd" d="M47.3389 35.9299L48.5489 34.6199C48.7689 34.3799 49.1189 34.3799 49.3489 34.6199L50.5489 35.9299C50.7689 36.1699 50.7689 36.5499 50.5489 36.7899L49.3489 38.0999C49.1289 38.3299 48.7789 38.3299 48.5589 38.0999L47.3489 36.7899C47.1389 36.5599 47.1389 36.1699 47.3489 35.9299H47.3389Z" fill="white"/>
        <path fill-rule="evenodd" clip-rule="evenodd" d="M36.7281 19.79C36.6881 19.64 36.5382 19.57 36.3782 19.57C35.6882 19.57 35.3182 19.45 34.6482 19.52C33.8582 19.6 33.5581 19.57 32.6681 20.06C32.3681 20.22 32.0482 20.42 31.8282 20.16C31.6382 19.94 31.6782 19.58 31.9282 19.42L33.3082 18.13C34.2782 17.48 34.1982 17.06 36.0782 17.01C37.3882 16.97 38.1981 17.22 39.4381 17.17C39.7481 17.17 40.0582 17.21 40.1782 17.49C40.3082 17.8 40.1482 18.18 39.8282 18.3L37.7081 20.28C37.4581 20.55 37.1082 20.76 37.1082 20.76C37.0282 21.02 36.9082 21.14 36.8582 21.4C36.7982 21.7 36.7982 21.9 36.8582 22.19V27.17C36.7682 27.8 36.7381 28.23 36.3681 28.73C35.5881 29.76 35.2181 30.16 34.4581 30.79C34.1681 31.02 33.8481 31.21 33.5981 30.97C33.3581 30.74 33.6382 30.44 33.6982 30.11C33.7682 29.77 33.8881 29.6 33.9381 29.25C33.9981 28.86 33.9981 28.63 33.9381 28.24V23.9C33.8981 23.53 33.9182 23.3 34.0382 22.94C34.1682 22.52 34.3182 22.28 34.6282 21.97L36.4581 20.15C36.4581 20.15 36.7481 19.95 36.7081 19.78L36.7281 19.79Z" fill="white"/>
        <path fill-rule="evenodd" clip-rule="evenodd" d="M24.0294 24.4398C24.1194 24.1298 24.5894 23.9998 24.8194 24.2198C25.0494 24.4398 24.8094 24.7398 24.6694 25.0298C24.4794 25.4398 24.3394 25.6998 24.4194 26.4698V31.4498C24.4194 31.8298 24.5494 32.0798 24.3694 32.4098C24.2794 32.5798 24.1594 32.6998 23.9194 32.9998L21.9394 35.0298C21.8294 35.3298 21.3994 35.4498 21.1494 35.2398C20.8894 35.0298 21.1894 34.7098 21.2494 34.3798C21.3194 34.0398 21.4494 33.8698 21.4994 33.5198C21.5594 33.1298 21.5594 32.8898 21.4994 32.4998V28.1698C21.4594 27.7898 21.4794 27.5598 21.5994 27.2098C21.7294 26.7898 21.8794 26.5598 22.1894 26.2498L24.0194 24.4298L24.0294 24.4398Z" fill="white"/>
        <path d="M194.379 52.5099C194.269 52.2799 194.129 52.0899 193.939 51.9399C193.759 51.7699 193.579 51.6399 193.379 51.5299C193.199 51.4199 192.949 51.2899 192.639 51.1399C192.169 50.9299 191.829 50.7299 191.599 50.5499C191.379 50.3799 191.259 50.1499 191.259 49.8699C191.259 49.6099 191.369 49.3899 191.579 49.1999C191.789 49.0099 192.049 48.9099 192.359 48.9099C192.539 48.9099 192.739 48.9399 192.959 49.0099C193.179 49.0799 193.379 49.1799 193.559 49.3199C193.669 49.3999 193.799 49.5299 193.969 49.7099C194.129 49.8799 194.229 49.9599 194.279 49.9599C194.329 49.9599 194.369 49.8999 194.369 49.7899V48.7899C194.369 48.6799 194.319 48.5899 194.199 48.5099C194.099 48.4299 193.959 48.3699 193.799 48.3199C193.639 48.2599 193.469 48.2199 193.289 48.1999C193.109 48.1699 192.949 48.1599 192.789 48.1599C191.909 48.1599 191.229 48.3699 190.749 48.7799C190.269 49.1899 190.029 49.6999 190.029 50.2999C190.029 50.6099 190.089 50.8699 190.189 51.1099C190.299 51.3299 190.439 51.5299 190.599 51.6799C190.779 51.8299 190.949 51.9599 191.129 52.0599C191.319 52.1599 191.559 52.2699 191.859 52.4099L192.099 52.5099C192.499 52.6999 192.799 52.8799 193.009 53.0799C193.209 53.2699 193.319 53.5099 193.319 53.8199C193.319 54.0899 193.189 54.3199 192.939 54.4999C192.689 54.6899 192.419 54.7799 192.139 54.7799C191.859 54.7799 191.589 54.7399 191.309 54.6499C191.019 54.5499 190.789 54.4199 190.599 54.2499C190.519 54.1699 190.419 54.0399 190.299 53.8299C190.189 53.6499 190.109 53.5499 190.059 53.5499C189.959 53.5499 189.919 53.5999 189.919 53.7099V54.3099C189.879 54.5699 189.879 54.7799 189.879 54.9299C189.879 55.0399 189.949 55.1399 190.079 55.2099C190.219 55.2899 190.399 55.3599 190.609 55.4199C190.819 55.4599 191.049 55.4999 191.279 55.5199C191.509 55.5499 191.719 55.5599 191.909 55.5599C192.199 55.5599 192.499 55.5199 192.809 55.4499C193.119 55.3599 193.409 55.2299 193.659 55.0499C193.929 54.8599 194.139 54.6299 194.309 54.3299C194.469 54.0399 194.559 53.6899 194.559 53.2699C194.559 52.9799 194.509 52.7199 194.399 52.4999L194.379 52.5099Z" fill="white"/>
        <path d="M61.3791 54.81C61.2391 54.57 61.1691 54.28 61.1391 53.96C61.0591 52.4 61.0291 50.93 61.0291 49.56C61.0291 48.06 61.0291 47.09 61.0491 46.63C61.0491 46.24 61.0491 45.94 61.0691 45.72L61.0991 45.09C61.1291 44.7 61.2091 44.35 61.3191 44.05C61.4391 43.74 61.6291 43.51 61.9091 43.27L61.3691 43.3C60.9291 43.34 60.5991 43.36 60.3591 43.36C59.9591 43.36 59.4291 43.33 58.7891 43.36C59.1091 43.58 59.3291 43.82 59.4291 44.1C59.5491 44.37 59.6191 44.67 59.6391 45.02C59.6791 45.75 59.7091 46.51 59.7291 47.29C59.7491 48.07 59.7591 48.84 59.7591 49.59C59.7591 51.56 59.7591 53.04 59.7291 54.03C59.7291 54.32 59.6391 54.58 59.4791 54.81C59.3291 55.03 59.1191 55.21 58.8791 55.34V55.46C59.4191 55.41 59.9191 55.39 60.3891 55.39C60.8591 55.39 61.4091 55.41 62.0491 55.46V55.34C61.7691 55.21 61.5491 55.03 61.3991 54.8L61.3791 54.81Z" fill="white"/>
        <path d="M69.5991 54.8101C69.4591 54.5701 69.3891 54.2801 69.3691 53.9601L69.3291 53.2101L69.2691 51.9901C69.2691 51.6501 69.2591 51.2901 69.2591 50.9201V50.1601C69.2591 49.4801 69.0791 48.9601 68.7191 48.6201C68.3691 48.2801 67.8691 48.1101 67.2291 48.1101C66.7191 48.1101 66.3091 48.1901 66.0091 48.3401C65.7091 48.4901 65.3991 48.6901 64.9991 49.0601V48.3301C64.9991 48.2701 64.9891 48.2301 64.8791 48.1501C64.8591 48.1501 64.7791 48.1901 64.6391 48.2701C64.2991 48.4701 63.9991 48.6201 63.7291 48.7101C63.6391 48.7401 63.4991 48.7701 63.2891 48.8301C63.0991 48.8601 62.9591 48.9101 62.8491 48.9401C62.7391 48.9701 62.6591 49.0101 62.6191 49.0701L62.6791 49.2001C62.8991 49.2401 63.0691 49.2701 63.1791 49.3001C63.2991 49.3301 63.3791 49.3901 63.4391 49.4701C63.5091 49.5501 63.5491 49.6701 63.5891 49.8401C63.6191 50.0101 63.6291 50.2401 63.6291 50.5401V52.0401C63.6291 52.3201 63.6191 52.9601 63.6191 53.9901C63.6191 54.2801 63.5391 54.5501 63.3891 54.7901C63.2491 55.0301 63.0491 55.2101 62.7991 55.3301V55.4501C63.3391 55.4001 63.8391 55.3801 64.3091 55.3801C64.7791 55.3801 65.3291 55.4001 65.9591 55.4501V55.3301C65.6791 55.2001 65.4591 55.0201 65.3191 54.7901C65.1791 54.5501 65.1091 54.2601 65.0791 53.9401C65.0191 52.8401 64.9991 51.9701 64.9991 51.3501V50.1301C65.0991 49.9001 65.3391 49.6901 65.6791 49.5001C66.0391 49.3001 66.3891 49.2101 66.7191 49.2101C67.0791 49.2101 67.3791 49.3401 67.6091 49.6101C67.8391 49.8801 67.9591 50.3001 67.9591 50.8901V52.3701C67.9591 52.7401 67.9591 53.3001 67.9291 54.0401C67.9291 54.3301 67.8391 54.5901 67.6791 54.8201C67.5291 55.0401 67.3191 55.2201 67.0791 55.3501V55.4701C67.6191 55.4201 68.1191 55.4001 68.5891 55.4001C69.0591 55.4001 69.6091 55.4201 70.2491 55.4701V55.3501C69.9691 55.2201 69.7491 55.0401 69.5991 54.8101Z" fill="white"/>
        <path d="M75.1698 54.1999C75.1198 54.1999 75.0198 54.2299 74.8798 54.2999C74.5798 54.4599 74.3199 54.5399 74.1199 54.5399C73.9199 54.5399 73.7598 54.4499 73.6298 54.2699C73.5098 54.0999 73.4398 53.9099 73.4298 53.7199C73.3498 52.1499 73.3098 50.6899 73.3098 49.3199V49.0899H74.5598V48.3999H73.3198C73.3398 47.6599 73.3498 47.0599 73.3498 46.6099C73.3498 46.5299 73.3298 46.4799 73.3098 46.4599C73.2898 46.4299 73.2398 46.4199 73.1498 46.4199C73.0698 46.4199 72.9799 46.5399 72.8699 46.7899C72.7599 47.0199 72.6598 47.1899 72.5798 47.2999C72.4298 47.4899 72.2599 47.6799 72.0499 47.8899C71.8499 48.0999 71.6499 48.2699 71.4799 48.3999C71.4099 48.4599 71.3098 48.5199 71.1698 48.5899C71.0498 48.6599 70.9699 48.7199 70.9099 48.7799C70.8599 48.8299 70.8398 48.8899 70.8398 48.9699C70.8398 49.0499 70.8399 49.0899 70.8699 49.0899H72.0198V49.3699C72.0198 51.3399 72.0198 52.8299 71.9898 53.8099C71.9898 54.3899 72.1499 54.8299 72.4799 55.1099C72.7999 55.3899 73.1898 55.5299 73.6298 55.5299C74.1298 55.5299 74.5398 55.3999 74.8798 55.1299C75.2098 54.8699 75.3699 54.6399 75.3699 54.4299C75.3699 54.2799 75.2998 54.2099 75.1698 54.2099V54.1999Z" fill="white"/>
        <path d="M82.1087 51.2199C82.2787 51.2199 82.3888 51.2199 82.4388 51.1899C82.4988 51.1599 82.5287 51.0999 82.5287 50.9999C82.5287 50.4899 82.4387 50.0599 82.2387 49.6899C82.0387 49.3199 81.7987 49.0199 81.4987 48.7999C81.1887 48.5799 80.8787 48.4199 80.5587 48.3199C80.2487 48.2199 79.9587 48.1699 79.7087 48.1699C78.5387 48.1699 77.6187 48.5099 76.9587 49.1799C76.2887 49.8499 75.9688 50.7199 75.9688 51.7899C75.9688 52.3199 76.0387 52.8099 76.1787 53.2699C76.3087 53.7199 76.5188 54.1199 76.7988 54.4499C77.0888 54.7899 77.4488 55.0599 77.8988 55.2599C78.3488 55.4499 78.8788 55.5499 79.4788 55.5499C79.9988 55.5499 80.4388 55.4799 80.7988 55.3299C81.1588 55.1799 81.5288 54.9599 81.9088 54.6599C82.0588 54.5499 82.1887 54.3999 82.3087 54.2099C82.4287 54.0099 82.4887 53.8399 82.4987 53.6799C82.4987 53.5799 82.4988 53.4699 82.4688 53.3799C82.4488 53.2699 82.4187 53.2199 82.3587 53.2199C82.3087 53.2199 82.1988 53.3199 82.0088 53.5299C81.7688 53.7999 81.5588 53.9899 81.3988 54.1199C81.1888 54.2799 80.9487 54.4299 80.6787 54.5499C80.4087 54.6499 80.1288 54.7099 79.8288 54.7099C79.4188 54.7099 79.0488 54.6199 78.7288 54.4299C78.3988 54.2399 78.1387 53.9999 77.9187 53.6899C77.7087 53.3799 77.5388 53.0299 77.4388 52.6299C77.3288 52.2399 77.2787 51.8399 77.2787 51.4299C77.2787 51.3399 77.2787 51.2699 77.2887 51.2299H82.1087V51.2199ZM77.4287 50.3099C77.7287 49.4299 78.3787 48.9899 79.3787 48.9899C79.8687 48.9899 80.2388 49.1299 80.5088 49.3999C80.7888 49.6599 80.9388 49.9699 80.9788 50.3199V50.5099H77.4388C77.4388 50.5099 77.4288 50.4599 77.4388 50.3099H77.4287Z" fill="white"/>
        <path d="M88.2189 48.2799C88.0789 48.2199 87.9389 48.1899 87.7989 48.1899C87.3689 48.1899 86.9689 48.2999 86.5989 48.5299C86.2289 48.7399 85.8889 49.0299 85.5989 49.3899V48.4399C85.5989 48.3699 85.5989 48.3099 85.5689 48.2599C85.5589 48.2199 85.5189 48.1899 85.4489 48.1899C85.2789 48.1899 85.1389 48.2099 85.0289 48.2399C84.9289 48.2599 84.8189 48.3199 84.6889 48.3999C84.5089 48.5099 84.3389 48.5799 84.1889 48.6299C84.0889 48.6599 83.9289 48.6999 83.7089 48.7299C83.5489 48.7599 83.4189 48.7899 83.3289 48.8199C83.2389 48.8499 83.1689 48.8899 83.1289 48.9399V49.0899C83.5089 49.1399 83.7889 49.3099 83.9589 49.6199C84.1389 49.9099 84.2189 50.2299 84.2189 50.5699V52.0699C84.2189 52.3499 84.2189 52.9899 84.2189 54.0199C84.2189 54.3099 84.1389 54.5799 83.9789 54.8199C83.8389 55.0599 83.6389 55.2399 83.3989 55.3599V55.4799C83.9389 55.4299 84.4389 55.4099 84.9089 55.4099C85.3789 55.4099 85.9289 55.4299 86.5689 55.4799V55.3599C86.2789 55.2299 86.0689 55.0499 85.9189 54.8199C85.7789 54.5799 85.7089 54.2899 85.6789 53.9699C85.6289 52.8699 85.5889 51.9999 85.5889 51.3799V50.6899C85.7789 50.3199 85.9889 50.0299 86.2189 49.8199C86.4589 49.6099 86.7589 49.4999 87.1289 49.4999C87.2089 49.4999 87.3189 49.5399 87.4789 49.5999C87.6289 49.6799 87.7389 49.7199 87.8189 49.7199C87.8789 49.7199 87.9189 49.6899 87.9589 49.6399C87.9989 49.5799 88.0389 49.4899 88.0889 49.3699L88.1689 49.2099C88.1889 49.1599 88.2189 49.0899 88.2689 49.0199C88.3889 48.7899 88.4389 48.6299 88.4389 48.5199C88.4389 48.4099 88.3689 48.3299 88.2189 48.2699V48.2799Z" fill="white"/>
        <path d="M96.0095 54.8099C95.8695 54.5699 95.7895 54.2799 95.7795 53.9599L95.7395 53.2099L95.6795 51.9899C95.6695 51.6499 95.6595 51.2899 95.6595 50.9199V50.1599C95.6595 49.4799 95.4795 48.9599 95.1195 48.6199C94.7695 48.2799 94.2695 48.1099 93.6195 48.1099C93.1195 48.1099 92.7095 48.1899 92.4095 48.3399C92.1095 48.4899 91.7995 48.6899 91.3995 49.0599V48.3299C91.3995 48.2699 91.3895 48.2299 91.2795 48.1499C91.2595 48.1499 91.1795 48.1899 91.0495 48.2699C90.7095 48.4699 90.3995 48.6199 90.1395 48.7099C90.0495 48.7399 89.9095 48.7699 89.6995 48.8299C89.5095 48.8599 89.3695 48.9099 89.2595 48.9399C89.1495 48.9699 89.0695 49.0099 89.0195 49.0699L89.0795 49.1999C89.2995 49.2399 89.4695 49.2699 89.5795 49.2999C89.6995 49.3299 89.7795 49.3899 89.8395 49.4699C89.9095 49.5499 89.9595 49.6699 89.9895 49.8399C90.0195 50.0099 90.0295 50.2399 90.0295 50.5399V52.0399C90.0295 52.3199 90.0095 52.9599 90.0095 53.9899C90.0095 54.2799 89.9295 54.5499 89.7795 54.7899C89.6395 55.0299 89.4395 55.2099 89.1995 55.3299V55.4499C89.7395 55.3999 90.2395 55.3799 90.7095 55.3799C91.1795 55.3799 91.7295 55.3999 92.3695 55.4499V55.3299C92.0795 55.1999 91.8695 55.0199 91.7195 54.7899C91.5795 54.5499 91.4995 54.2599 91.4895 53.9399C91.4295 52.8399 91.3995 51.9699 91.3995 51.3499V50.1299C91.4995 49.8999 91.7295 49.6899 92.0795 49.4999C92.4495 49.2999 92.7895 49.2099 93.1195 49.2099C93.4795 49.2099 93.7795 49.3399 94.0095 49.6099C94.2395 49.8799 94.3595 50.2999 94.3595 50.8899V52.3699C94.3595 52.7399 94.3595 53.2999 94.3295 54.0399C94.3295 54.3299 94.2295 54.5899 94.0795 54.8199C93.9295 55.0399 93.7295 55.2199 93.4795 55.3499V55.4699C94.0195 55.4199 94.5195 55.3999 94.9895 55.3999C95.4595 55.3999 96.0095 55.4199 96.6395 55.4699V55.3499C96.3595 55.2199 96.1495 55.0399 95.9995 54.8099H96.0095Z" fill="white"/>
        <path d="M103.709 54.3202C103.649 54.3202 103.549 54.3402 103.389 54.3902C103.219 54.4502 103.089 54.4802 103.009 54.4802C102.859 54.4802 102.739 54.4402 102.659 54.3802C102.579 54.3102 102.539 54.1902 102.529 54.0302C102.459 52.7202 102.419 51.5202 102.409 50.4602V49.9102C102.409 49.5002 102.369 49.1902 102.279 48.9502C102.199 48.7202 102.079 48.5402 101.929 48.4402C101.769 48.3202 101.589 48.2502 101.399 48.2202C101.199 48.1802 100.959 48.1602 100.669 48.1602C100.329 48.1602 99.9895 48.2102 99.6495 48.3102C99.3195 48.4002 99.0095 48.5302 98.7295 48.7002C98.4195 48.8702 98.1795 49.0702 98.0095 49.3102C97.8295 49.5302 97.7495 49.7802 97.7495 50.0402C97.7495 50.2702 97.9095 50.4802 98.2495 50.6602C98.4595 50.7802 98.6695 50.8302 98.8595 50.8302C98.9495 50.8302 99.0394 50.8002 99.1294 50.7402C99.2194 50.6702 99.2595 50.6002 99.2595 50.5202C99.2595 50.4602 99.2394 50.3702 99.2094 50.2402C99.1794 50.1102 99.1694 50.0202 99.1694 49.9602C99.1694 49.8202 99.2094 49.6902 99.2694 49.5402C99.3494 49.4002 99.4495 49.2602 99.5695 49.1502C99.6895 49.0302 99.8295 48.9302 99.9795 48.8602C100.139 48.7902 100.289 48.7402 100.429 48.7402C100.629 48.7402 100.789 48.8402 100.929 49.0202C101.069 49.2102 101.139 49.4502 101.139 49.7602V51.0502C100.869 51.2102 100.409 51.4002 99.7595 51.6402C99.3895 51.7802 99.0695 51.9002 98.8195 52.0202C98.5695 52.1302 98.3394 52.2602 98.1294 52.4202C97.9194 52.5802 97.7594 52.7602 97.6294 52.9902C97.4994 53.2102 97.4395 53.4802 97.4395 53.7802C97.4395 54.0102 97.4894 54.2402 97.5994 54.4502C97.7194 54.6702 97.8694 54.8602 98.0594 55.0202C98.2494 55.1802 98.4595 55.3002 98.6895 55.3902C98.9295 55.4802 99.1794 55.5202 99.4194 55.5202C99.6594 55.5202 99.9395 55.4502 100.249 55.3302C100.559 55.2002 100.859 55.0302 101.159 54.8302C101.229 55.1002 101.349 55.3002 101.529 55.4002C101.709 55.4902 101.909 55.5502 102.159 55.5502C102.469 55.5502 102.829 55.4502 103.229 55.2602C103.419 55.1802 103.579 55.0902 103.709 54.9802C103.839 54.8802 103.919 54.7702 103.919 54.6602C103.919 54.5802 103.899 54.5102 103.869 54.4402C103.839 54.3702 103.789 54.3402 103.729 54.3402L103.709 54.3202ZM101.089 53.9002C100.949 54.0902 100.769 54.2502 100.579 54.3702C100.389 54.4902 100.209 54.5702 100.029 54.5802C99.6794 54.5802 99.4094 54.4602 99.2094 54.2302C99.0294 53.9902 98.9295 53.7302 98.9295 53.4602C98.9295 53.1702 99.0895 52.9002 99.3895 52.6802C99.6995 52.4602 100.149 52.1902 100.719 51.9002L101.119 51.7002C101.119 52.7302 101.119 53.4702 101.099 53.9102L101.089 53.9002Z" fill="white"/>
        <path d="M108.588 54.1999C108.538 54.1999 108.448 54.2299 108.288 54.2999C107.988 54.4599 107.738 54.5399 107.528 54.5399C107.338 54.5399 107.168 54.4499 107.048 54.2699C106.918 54.0999 106.848 53.9099 106.838 53.7199C106.768 52.1499 106.728 50.6899 106.728 49.3199V49.0899H107.968V48.3999H106.738C106.758 47.6599 106.768 47.0599 106.768 46.6099C106.768 46.5299 106.758 46.4799 106.728 46.4599C106.708 46.4299 106.648 46.4199 106.568 46.4199C106.488 46.4199 106.398 46.5399 106.288 46.7899C106.178 47.0199 106.088 47.1899 105.998 47.2999C105.848 47.4899 105.678 47.6799 105.468 47.8899C105.268 48.0999 105.078 48.2699 104.898 48.3999C104.828 48.4599 104.728 48.5199 104.598 48.5899C104.478 48.6599 104.388 48.7199 104.328 48.7799C104.278 48.8299 104.258 48.8899 104.258 48.9699C104.258 49.0499 104.268 49.0899 104.288 49.0899H105.448V49.3699C105.448 51.3399 105.438 52.8299 105.418 53.8099C105.418 54.3899 105.578 54.8299 105.898 55.1099C106.218 55.3899 106.608 55.5299 107.058 55.5299C107.558 55.5299 107.968 55.3999 108.298 55.1299C108.628 54.8699 108.798 54.6399 108.798 54.4299C108.798 54.2799 108.728 54.2099 108.588 54.2099V54.1999Z" fill="white"/>
        <path d="M112.069 54.81C111.929 54.57 111.859 54.28 111.839 53.96C111.779 52.86 111.749 51.99 111.749 51.37C111.749 50.84 111.769 50.36 111.799 49.9C111.839 49.45 111.899 48.94 111.989 48.38V48.26C111.749 48.26 111.559 48.29 111.429 48.32C111.309 48.36 111.169 48.42 111.039 48.5C110.879 48.6 110.709 48.68 110.569 48.73C110.469 48.76 110.309 48.8 110.069 48.85C109.869 48.89 109.719 48.93 109.609 48.97C109.509 49 109.419 49.04 109.379 49.09V49.22C109.749 49.27 110.009 49.42 110.159 49.67C110.319 49.92 110.389 50.21 110.389 50.56V52.06C110.389 52.34 110.379 52.98 110.379 54.01C110.379 54.3 110.299 54.57 110.139 54.81C109.989 55.05 109.799 55.23 109.549 55.35V55.47C110.089 55.42 110.589 55.4 111.059 55.4C111.529 55.4 112.079 55.42 112.709 55.47V55.35C112.429 55.22 112.209 55.04 112.069 54.81Z" fill="white"/>
        <path d="M111 47.2399C111.22 47.2399 111.4 47.1599 111.56 47.0199C111.72 46.8599 111.8 46.6799 111.8 46.4599C111.8 46.2199 111.74 46.0299 111.62 45.8899C111.52 45.7499 111.31 45.6899 111.01 45.6899C110.79 45.6899 110.61 45.7699 110.45 45.9199C110.31 46.0699 110.23 46.2499 110.23 46.4599C110.23 46.7099 110.29 46.8899 110.39 47.0299C110.51 47.1699 110.71 47.2399 111.01 47.2399H111Z" fill="white"/>
        <path d="M119.749 49.3299C119.429 48.9699 119.049 48.6799 118.599 48.4699C118.169 48.2699 117.709 48.1599 117.209 48.1599C116.619 48.1599 116.079 48.2599 115.599 48.4399C115.109 48.6099 114.699 48.8699 114.349 49.1999C114.009 49.5199 113.749 49.8999 113.559 50.3399C113.379 50.7799 113.289 51.2499 113.289 51.7599C113.289 52.2699 113.359 52.7799 113.489 53.2499C113.629 53.7199 113.839 54.1299 114.119 54.4999C114.409 54.8599 114.769 55.1399 115.219 55.3499C115.679 55.5499 116.199 55.6499 116.809 55.6499C117.419 55.6499 117.929 55.5599 118.419 55.3699C118.919 55.1899 119.339 54.9299 119.679 54.6099C120.029 54.2699 120.299 53.8899 120.479 53.4499C120.679 52.9999 120.769 52.5199 120.769 52.0099C120.769 51.4999 120.679 51.0199 120.489 50.5399C120.309 50.0699 120.049 49.6599 119.729 49.2999L119.749 49.3299ZM118.769 54.2499C118.319 54.6699 117.749 54.8799 117.049 54.8799C116.729 54.8799 116.429 54.7799 116.149 54.5799C115.859 54.3699 115.609 54.0799 115.389 53.7299C115.169 53.3799 114.999 52.9999 114.869 52.5899C114.759 52.1699 114.699 51.7599 114.699 51.3599C114.699 50.5799 114.899 49.9799 115.299 49.5699C115.709 49.1599 116.259 48.9599 116.939 48.9599C117.289 48.9599 117.609 49.0699 117.919 49.2799C118.229 49.4899 118.499 49.7699 118.719 50.1099C118.939 50.4499 119.119 50.8399 119.239 51.2599C119.369 51.6799 119.429 52.0899 119.429 52.4899C119.429 53.2499 119.209 53.8499 118.759 54.2699L118.769 54.2499Z" fill="white"/>
        <path d="M128.359 54.8101C128.219 54.5701 128.149 54.2801 128.129 53.9601L128.089 53.2101L128.029 51.9901C128.029 51.6501 128.019 51.2901 128.019 50.9201V50.1601C128.019 49.4801 127.839 48.9601 127.479 48.6201C127.129 48.2801 126.629 48.1101 125.979 48.1101C125.469 48.1101 125.069 48.1901 124.769 48.3401C124.469 48.4901 124.169 48.6901 123.759 49.0601V48.3301C123.759 48.2701 123.759 48.2301 123.639 48.1501C123.619 48.1501 123.539 48.1901 123.399 48.2701C123.059 48.4701 122.759 48.6201 122.489 48.7101C122.399 48.7401 122.259 48.7701 122.049 48.8301C121.869 48.8601 121.719 48.9101 121.609 48.9401C121.499 48.9701 121.419 49.0101 121.369 49.0701L121.429 49.2001C121.659 49.2401 121.829 49.2701 121.929 49.3001C122.049 49.3301 122.139 49.3901 122.189 49.4701C122.259 49.5501 122.309 49.6701 122.339 49.8401C122.369 50.0101 122.379 50.2401 122.379 50.5401V52.0401C122.379 52.3201 122.369 52.9601 122.369 53.9901C122.369 54.2801 122.289 54.5501 122.139 54.7901C121.989 55.0301 121.799 55.2101 121.549 55.3301V55.4501C122.089 55.4001 122.589 55.3801 123.059 55.3801C123.529 55.3801 124.079 55.4001 124.719 55.4501V55.3301C124.439 55.2001 124.219 55.0201 124.079 54.7901C123.939 54.5501 123.859 54.2601 123.839 53.9401C123.779 52.8401 123.749 51.9701 123.749 51.3501V50.1301C123.849 49.9001 124.089 49.6901 124.439 49.5001C124.799 49.3001 125.149 49.2101 125.479 49.2101C125.839 49.2101 126.139 49.3401 126.369 49.6101C126.599 49.8801 126.719 50.3001 126.719 50.8901V52.3701C126.719 52.7401 126.719 53.3001 126.689 54.0401C126.689 54.3301 126.589 54.5901 126.439 54.8201C126.279 55.0401 126.079 55.2201 125.839 55.3501V55.4701C126.379 55.4201 126.879 55.4001 127.349 55.4001C127.819 55.4001 128.379 55.4201 129.009 55.4701V55.3501C128.719 55.2201 128.509 55.0401 128.369 54.8101H128.359Z" fill="white"/>
        <path d="M136.048 54.3202C135.988 54.3202 135.888 54.3402 135.728 54.3902C135.558 54.4502 135.428 54.4802 135.348 54.4802C135.198 54.4802 135.088 54.4402 134.998 54.3802C134.918 54.3102 134.878 54.1902 134.868 54.0302C134.798 52.7202 134.758 51.5202 134.748 50.4602V49.9102C134.748 49.5002 134.708 49.1902 134.618 48.9502C134.538 48.7202 134.418 48.5402 134.268 48.4402C134.108 48.3202 133.938 48.2502 133.738 48.2202C133.538 48.1802 133.298 48.1602 133.008 48.1602C132.658 48.1602 132.318 48.2102 131.978 48.3102C131.648 48.4002 131.338 48.5302 131.058 48.7002C130.758 48.8702 130.518 49.0702 130.338 49.3102C130.168 49.5302 130.078 49.7802 130.078 50.0402C130.078 50.2702 130.238 50.4802 130.578 50.6602C130.788 50.7802 130.998 50.8302 131.188 50.8302C131.278 50.8302 131.368 50.8002 131.448 50.7402C131.538 50.6702 131.578 50.6002 131.578 50.5202C131.578 50.4602 131.558 50.3702 131.538 50.2402C131.508 50.1102 131.498 50.0202 131.498 49.9602C131.498 49.8202 131.528 49.6902 131.598 49.5402C131.678 49.4002 131.778 49.2602 131.888 49.1502C132.018 49.0302 132.148 48.9302 132.298 48.8602C132.458 48.7902 132.608 48.7402 132.758 48.7402C132.948 48.7402 133.118 48.8402 133.248 49.0202C133.388 49.2102 133.458 49.4502 133.458 49.7602V51.0502C133.178 51.2102 132.728 51.4002 132.078 51.6402C131.708 51.7802 131.398 51.9002 131.138 52.0202C130.888 52.1302 130.668 52.2602 130.448 52.4202C130.238 52.5802 130.068 52.7602 129.948 52.9902C129.828 53.2102 129.758 53.4802 129.758 53.7802C129.758 54.0102 129.808 54.2402 129.918 54.4502C130.038 54.6702 130.188 54.8602 130.368 55.0202C130.558 55.1802 130.768 55.3002 130.998 55.3902C131.238 55.4802 131.488 55.5202 131.738 55.5202C131.988 55.5202 132.258 55.4502 132.568 55.3302C132.878 55.2002 133.188 55.0302 133.478 54.8302C133.548 55.1002 133.678 55.3002 133.848 55.4002C134.018 55.4902 134.228 55.5502 134.478 55.5502C134.788 55.5502 135.148 55.4502 135.548 55.2602C135.728 55.1802 135.898 55.0902 136.028 54.9802C136.168 54.8802 136.238 54.7702 136.238 54.6602C136.238 54.5802 136.218 54.5102 136.198 54.4402C136.168 54.3702 136.118 54.3402 136.048 54.3402V54.3202ZM133.428 53.9002C133.278 54.0902 133.118 54.2502 132.918 54.3702C132.728 54.4902 132.548 54.5702 132.368 54.5802C132.018 54.5802 131.738 54.4602 131.548 54.2302C131.358 53.9902 131.268 53.7302 131.268 53.4602C131.268 53.1702 131.418 52.9002 131.728 52.6802C132.038 52.4602 132.488 52.1902 133.058 51.9002L133.458 51.7002C133.458 52.7302 133.458 53.4702 133.438 53.9102L133.428 53.9002Z" fill="white"/>
        <path d="M139.349 54.81C139.219 54.57 139.139 54.28 139.119 53.96C139.039 52.4 138.999 50.93 138.999 49.56V47.81L139.029 46.07C139.049 45.5 139.079 45 139.109 44.59C139.139 44.17 139.169 43.93 139.209 43.86V43.74C138.969 43.74 138.779 43.76 138.659 43.8C138.529 43.84 138.399 43.9 138.259 43.97C138.099 44.07 137.939 44.16 137.789 44.21C137.689 44.24 137.529 44.28 137.289 44.33C137.099 44.37 136.949 44.41 136.839 44.45C136.729 44.48 136.649 44.52 136.609 44.56V44.69C136.979 44.74 137.229 44.89 137.369 45.14C137.509 45.4 137.579 45.7 137.599 46.06L137.629 46.66C137.669 47.33 137.689 47.86 137.699 48.23C137.699 48.59 137.709 49.04 137.709 49.59C137.709 51.56 137.709 53.04 137.679 54.03C137.679 54.32 137.589 54.58 137.429 54.81C137.269 55.03 137.069 55.21 136.829 55.34V55.46C137.369 55.41 137.869 55.39 138.339 55.39C138.809 55.39 139.359 55.41 139.999 55.46V55.34C139.719 55.21 139.499 55.03 139.349 54.8V54.81Z" fill="white"/>
        <path d="M154.839 53.9L151.309 45.05L150.639 43.34H150.249C149.979 43.34 149.659 43.34 149.319 43.32C148.989 43.3 148.709 43.28 148.519 43.37C148.839 43.58 149.099 43.84 149.309 44.14C149.529 44.43 149.639 44.72 149.639 45.01C149.639 45.09 149.619 45.17 149.589 45.26L146.049 53.83C145.719 54.64 145.179 55.15 144.359 55.47C144.789 55.42 145.219 55.39 145.659 55.39C146.059 55.39 146.459 55.42 146.849 55.39C146.669 55.22 146.579 55.02 146.579 54.82C146.579 54.67 146.639 54.43 146.759 54.13L148.059 50.73C148.679 50.66 149.359 50.63 150.099 50.63C150.639 50.63 151.279 50.66 152.029 50.73L153.169 53.87C153.199 53.95 153.219 54.04 153.239 54.15C153.279 54.26 153.289 54.35 153.289 54.44C153.289 54.57 153.199 54.75 153.029 55C152.889 55.19 152.819 55.32 152.819 55.48C153.399 55.4 153.979 55.35 154.549 55.35C155.089 55.35 155.629 55.39 156.159 55.38C155.569 55.15 155.139 54.66 154.839 53.91V53.9ZM150.059 50.06C149.499 50.06 148.959 50.05 148.429 49.95L150.159 45.81L151.709 50.01C151.169 50.04 150.619 50.05 150.059 50.05V50.06Z" fill="white"/>
        <path d="M159.44 54.81C159.3 54.57 159.23 54.28 159.2 53.96C159.14 52.86 159.12 51.99 159.12 51.37C159.12 50.84 159.13 50.36 159.16 49.9C159.2 49.45 159.26 48.94 159.35 48.38V48.26C159.11 48.26 158.92 48.29 158.79 48.32C158.66 48.36 158.53 48.42 158.4 48.5C158.23 48.6 158.08 48.68 157.93 48.73C157.83 48.76 157.67 48.8 157.43 48.85C157.23 48.89 157.09 48.93 156.98 48.97C156.87 49 156.79 49.04 156.75 49.09V49.22C157.12 49.27 157.38 49.42 157.53 49.67C157.68 49.92 157.76 50.21 157.76 50.56V52.06C157.76 52.34 157.75 52.98 157.75 54.01C157.75 54.3 157.67 54.57 157.51 54.81C157.36 55.05 157.17 55.23 156.93 55.35V55.47C157.47 55.42 157.97 55.4 158.44 55.4C158.91 55.4 159.47 55.42 160.1 55.47V55.35C159.81 55.22 159.6 55.04 159.45 54.81H159.44Z" fill="white"/>
        <path d="M158.37 47.2399C158.59 47.2399 158.77 47.1599 158.93 47.0199C159.09 46.8599 159.16 46.6799 159.16 46.4599C159.16 46.2199 159.1 46.0299 158.99 45.8899C158.88 45.7499 158.68 45.6899 158.37 45.6899C158.16 45.6899 157.97 45.7699 157.81 45.9199C157.66 46.0699 157.59 46.2499 157.59 46.4599C157.59 46.7099 157.64 46.8899 157.75 47.0299C157.86 47.1699 158.07 47.2399 158.37 47.2399Z" fill="white"/>
        <path d="M165.758 48.2799C165.618 48.2199 165.478 48.1899 165.338 48.1899C164.908 48.1899 164.508 48.2999 164.138 48.5299C163.768 48.7399 163.438 49.0299 163.138 49.3899V48.4399C163.138 48.3699 163.138 48.3099 163.108 48.2599C163.098 48.2199 163.058 48.1899 162.988 48.1899C162.818 48.1899 162.668 48.2099 162.568 48.2399C162.468 48.2599 162.358 48.3199 162.228 48.3999C162.048 48.5099 161.878 48.5799 161.728 48.6299C161.628 48.6599 161.468 48.6999 161.248 48.7299C161.088 48.7599 160.968 48.7899 160.868 48.8199C160.778 48.8499 160.718 48.8899 160.658 48.9399V49.0899C161.038 49.1399 161.318 49.3099 161.488 49.6199C161.668 49.9099 161.758 50.2299 161.758 50.5699V52.0699C161.748 52.3499 161.738 52.9899 161.738 54.0199C161.738 54.3099 161.658 54.5799 161.498 54.8199C161.358 55.0599 161.158 55.2399 160.908 55.3599V55.4799C161.448 55.4299 161.948 55.4099 162.418 55.4099C162.888 55.4099 163.438 55.4299 164.068 55.4799V55.3599C163.788 55.2299 163.578 55.0499 163.428 54.8199C163.288 54.5799 163.218 54.2899 163.198 53.9699C163.138 52.8699 163.108 51.9999 163.108 51.3799V50.6899C163.298 50.3199 163.498 50.0299 163.738 49.8199C163.988 49.6099 164.288 49.4999 164.648 49.4999C164.728 49.4999 164.848 49.5399 164.998 49.5999C165.148 49.6799 165.258 49.7199 165.338 49.7199C165.398 49.7199 165.438 49.6899 165.478 49.6399C165.518 49.5799 165.558 49.4899 165.608 49.3699L165.688 49.2099C165.708 49.1599 165.738 49.0899 165.788 49.0199C165.908 48.7899 165.968 48.6299 165.968 48.5199C165.968 48.4099 165.888 48.3299 165.748 48.2699L165.758 48.2799Z" fill="white"/>
        <path d="M169.318 54.81C169.178 54.57 169.108 54.28 169.088 53.96C169.008 52.4 168.968 50.93 168.968 49.56V47.81L168.998 46.07C169.018 45.5 169.048 45 169.078 44.59C169.108 44.17 169.138 43.93 169.178 43.86V43.74C168.938 43.74 168.748 43.76 168.618 43.8C168.488 43.84 168.368 43.9 168.228 43.97C168.058 44.07 167.908 44.16 167.758 44.21C167.668 44.24 167.498 44.28 167.258 44.33C167.068 44.37 166.908 44.41 166.808 44.45C166.698 44.48 166.628 44.52 166.578 44.56V44.69C166.948 44.74 167.198 44.89 167.338 45.14C167.478 45.4 167.548 45.7 167.568 46.06L167.598 46.66C167.638 47.33 167.668 47.86 167.668 48.23C167.668 48.59 167.688 49.04 167.688 49.59C167.688 51.56 167.688 53.04 167.658 54.03C167.648 54.32 167.558 54.58 167.408 54.81C167.248 55.03 167.048 55.21 166.808 55.34V55.46C167.348 55.41 167.848 55.39 168.318 55.39C168.788 55.39 169.338 55.41 169.968 55.46V55.34C169.688 55.21 169.468 55.03 169.318 54.8V54.81Z" fill="white"/>
        <path d="M173.249 54.81C173.119 54.57 173.039 54.28 173.019 53.96C172.959 52.86 172.929 51.99 172.929 51.37C172.929 50.84 172.939 50.36 172.969 49.9C173.009 49.45 173.079 48.94 173.159 48.38V48.26C172.909 48.26 172.729 48.29 172.599 48.32C172.469 48.36 172.339 48.42 172.199 48.5C172.039 48.6 171.879 48.68 171.729 48.73C171.629 48.76 171.469 48.8 171.229 48.85C171.039 48.89 170.889 48.93 170.779 48.97C170.669 49 170.589 49.04 170.549 49.09V49.22C170.919 49.27 171.179 49.42 171.329 49.67C171.479 49.92 171.559 50.21 171.559 50.56V52.06C171.559 52.34 171.539 52.98 171.539 54.01C171.539 54.3 171.459 54.57 171.309 54.81C171.169 55.05 170.969 55.23 170.719 55.35V55.47C171.259 55.42 171.759 55.4 172.229 55.4C172.699 55.4 173.249 55.42 173.879 55.47V55.35C173.599 55.22 173.379 55.04 173.229 54.81H173.249Z" fill="white"/>
        <path d="M172.178 47.2399C172.388 47.2399 172.578 47.1599 172.738 47.0199C172.898 46.8599 172.968 46.6799 172.968 46.4599C172.968 46.2199 172.908 46.0299 172.798 45.8899C172.688 45.7499 172.488 45.6799 172.178 45.6799C171.968 45.6799 171.778 45.7599 171.618 45.9199C171.468 46.0699 171.398 46.2499 171.398 46.4599C171.398 46.7099 171.448 46.8899 171.558 47.0299C171.678 47.1699 171.878 47.2399 172.178 47.2399Z" fill="white"/>
        <path d="M181.47 54.8101C181.33 54.5701 181.26 54.2801 181.24 53.9601L181.2 53.2101L181.14 51.9901C181.14 51.6501 181.12 51.2901 181.12 50.9201V50.1601C181.12 49.4801 180.94 48.9601 180.58 48.6201C180.23 48.2801 179.73 48.1101 179.09 48.1101C178.58 48.1101 178.18 48.1901 177.88 48.3401C177.58 48.4901 177.27 48.6901 176.87 49.0601V48.3301C176.87 48.2701 176.86 48.2301 176.75 48.1501C176.73 48.1501 176.65 48.1901 176.52 48.2701C176.18 48.4701 175.87 48.6201 175.61 48.7101C175.52 48.7401 175.38 48.7701 175.17 48.8301C174.98 48.8601 174.84 48.9101 174.73 48.9401C174.62 48.9701 174.54 49.0101 174.5 49.0701L174.56 49.2001C174.78 49.2401 174.95 49.2701 175.06 49.3001C175.18 49.3301 175.26 49.3901 175.32 49.4701C175.39 49.5501 175.44 49.6701 175.46 49.8401C175.49 50.0101 175.5 50.2401 175.5 50.5401V52.0401C175.5 52.3201 175.48 52.9601 175.48 53.9901C175.48 54.2801 175.4 54.5501 175.25 54.7901C175.1 55.0301 174.91 55.2101 174.66 55.3301V55.4501C175.2 55.4001 175.7 55.3801 176.17 55.3801C176.64 55.3801 177.19 55.4001 177.83 55.4501V55.3301C177.54 55.2001 177.33 55.0201 177.19 54.7901C177.05 54.5501 176.98 54.2601 176.95 53.9401C176.9 52.8401 176.87 51.9701 176.87 51.3501V50.1301C176.98 49.9001 177.2 49.6901 177.56 49.5001C177.92 49.3001 178.27 49.2101 178.6 49.2101C178.96 49.2101 179.26 49.3401 179.49 49.6101C179.72 49.8801 179.84 50.3001 179.84 50.8901V52.3701C179.84 52.7401 179.84 53.3001 179.81 54.0401C179.79 54.3301 179.71 54.5901 179.56 54.8201C179.41 55.0401 179.2 55.2201 178.96 55.3501V55.4701C179.5 55.4201 180 55.4001 180.47 55.4001C180.94 55.4001 181.5 55.4201 182.13 55.4701V55.3501C181.84 55.2201 181.63 55.0401 181.48 54.8101H181.47Z" fill="white"/>
        <path d="M188.849 51.2199C189.019 51.2199 189.129 51.2199 189.189 51.1899C189.249 51.1599 189.279 51.0999 189.279 50.9999C189.279 50.4899 189.179 50.0599 188.989 49.6899C188.789 49.3199 188.539 49.0199 188.239 48.7999C187.939 48.5799 187.619 48.4199 187.299 48.3199C186.989 48.2199 186.699 48.1699 186.449 48.1699C185.279 48.1699 184.359 48.5099 183.689 49.1799C183.029 49.8499 182.699 50.7199 182.699 51.7899C182.699 52.3199 182.769 52.8099 182.909 53.2699C183.049 53.7199 183.259 54.1199 183.539 54.4499C183.829 54.7899 184.199 55.0599 184.639 55.2599C185.089 55.4499 185.619 55.5499 186.219 55.5499C186.739 55.5499 187.179 55.4799 187.539 55.3299C187.899 55.1799 188.269 54.9599 188.649 54.6599C188.789 54.5499 188.929 54.3999 189.039 54.2099C189.159 54.0099 189.219 53.8399 189.229 53.6799C189.229 53.5799 189.229 53.4699 189.199 53.3799C189.179 53.2699 189.149 53.2199 189.099 53.2199C189.049 53.2199 188.929 53.3199 188.739 53.5299C188.499 53.7999 188.289 53.9899 188.129 54.1199C187.909 54.2799 187.669 54.4299 187.409 54.5499C187.149 54.6499 186.859 54.7099 186.559 54.7099C186.149 54.7099 185.779 54.6199 185.459 54.4299C185.139 54.2399 184.869 53.9999 184.649 53.6899C184.439 53.3799 184.279 53.0299 184.169 52.6299C184.059 52.2399 184.009 51.8399 184.009 51.4299C184.009 51.3399 184.009 51.2699 184.029 51.2299H188.849V51.2199ZM184.179 50.3099C184.479 49.4299 185.129 48.9899 186.129 48.9899C186.619 48.9899 186.999 49.1299 187.259 49.3999C187.529 49.6599 187.689 49.9699 187.729 50.3199V50.5099H184.189C184.189 50.5099 184.179 50.4599 184.189 50.3099H184.179Z" fill="white"/>
        <path d="M190.7 17.6499C191.18 17.6899 191.7 17.7499 192.27 17.8599C192.64 17.9199 192.89 17.9399 193.01 17.9399C193.35 17.9399 193.91 17.9099 194.71 17.8599C195.4 17.8099 195.93 17.7699 196.3 17.7599V18.0799C195.82 18.3299 195.48 18.7399 195.26 19.2999C195.05 19.8399 194.92 20.4699 194.87 21.1599C194.82 21.8299 194.78 22.5299 194.76 23.2499V29.1699C194.76 29.8299 194.76 30.7799 194.73 32.0099C194.71 33.6899 194.7 34.8599 194.7 35.5099C194.7 36.9199 194.72 37.9299 194.75 38.5099L194.77 38.7999C194.79 39.1499 194.8 39.3899 194.8 39.5199C194.8 39.8399 194.75 40.0599 194.64 40.1799C194.53 40.3199 194.33 40.3899 194.03 40.3899C193.85 40.3899 193.65 40.3099 193.42 40.1199C193.21 39.9599 193.02 39.7799 192.86 39.5699L179.11 23.6899V29.1599C179.11 31.6199 179.18 34.2399 179.32 37.0199C179.37 38.2599 179.89 39.0999 180.88 39.5499V39.9199C180.07 39.8499 179.39 39.7999 178.86 39.7899C178.35 39.7499 177.86 39.7399 177.4 39.7399C177.12 39.7399 176.85 39.7499 176.6 39.7699C176.35 39.7899 175.84 39.8299 175.06 39.8999V39.5299C175.52 39.2999 175.88 38.9899 176.15 38.5999C176.42 38.2099 176.56 37.7299 176.57 37.1699C176.61 35.4199 176.63 32.7699 176.63 29.2299C176.63 28.6699 176.63 27.7699 176.66 26.5499C176.68 25.2899 176.69 24.3499 176.69 23.7099C176.69 22.4899 176.67 21.5899 176.64 20.9999V20.8099C176.58 20.2299 176.45 19.7099 176.21 19.2499C175.98 18.7899 175.59 18.3599 175.04 17.9799L174.91 17.6099C175 17.6099 175.12 17.6099 175.28 17.6399C176.07 17.7199 176.69 17.7899 177.11 17.8299L178.46 17.8799L192.27 34.1799V29.2199C192.27 27.8699 192.25 26.4999 192.22 25.1099C192.18 23.7099 192.12 22.3599 192.05 21.0499C192.01 20.3099 191.92 19.7299 191.76 19.2699C191.6 18.8099 191.24 18.3899 190.67 18.0199V17.6799L190.7 17.6499Z" fill="white"/>
        <path d="M71.6 26.8099C72.17 25.8499 72.45 24.8899 72.45 23.9099C72.45 22.9899 72.21 22.0799 71.74 21.1999C71.26 20.3099 70.54 19.5799 69.59 18.9899C69.05 18.6699 68.38 18.4099 67.57 18.2199C66.75 18.0099 66.03 17.9099 65.39 17.9099C64.88 17.9099 64.07 17.9399 62.97 18.0099C61.91 18.0899 61.09 18.1399 60.5 18.1399C59.76 18.1399 58.61 18.0699 57.05 17.9299V18.3299C57.67 18.6499 58.09 19.0399 58.3 19.4899C58.53 19.9399 58.66 20.4799 58.7 21.1099C58.77 22.4199 58.82 23.7699 58.86 25.1699C58.9 26.5699 58.91 27.9399 58.91 29.2799C58.91 32.7999 58.89 35.4499 58.86 37.2199C58.84 37.7499 58.66 38.1999 58.33 38.5699C57.99 38.9399 57.55 39.2699 57 39.5499V39.9499C58.31 39.8299 59.5 39.7699 60.56 39.7699C61.02 39.7699 61.5 39.7799 62.02 39.8199C62.55 39.8399 63.23 39.8799 64.03 39.9499V39.5799C63.47 39.3099 63.08 39.0199 62.87 38.6999C62.65 38.3699 62.52 37.8199 62.47 37.0499C62.33 34.9799 62.26 32.6499 62.26 30.0399C62.58 30.1299 62.93 30.1999 63.3 30.2499C63.67 30.2899 64.02 30.2999 64.34 30.2999C65.35 30.2999 66.27 30.2299 67.1 30.0799C67.95 29.9399 68.71 29.6299 69.39 29.1599C70.31 28.5199 71.05 27.7299 71.62 26.7699L71.6 26.8099ZM68.52 26.1399C68.36 26.8499 68.1 27.4099 67.72 27.8099C67.24 28.2999 66.69 28.6799 66.07 28.9299C65.47 29.1799 64.85 29.3099 64.21 29.3299C64.07 29.3299 63.8 29.2899 63.41 29.1999C62.9 29.0899 62.51 29.0399 62.24 29.0399V23.2799C62.26 22.5699 62.29 21.8899 62.35 21.2299C62.37 21.0899 62.38 20.8699 62.38 20.5999C62.38 20.0299 62.42 19.6399 62.59 19.4299C63.21 19.3599 63.65 19.3299 63.92 19.3299C64.51 19.3299 65.04 19.3899 65.54 19.5099C66.03 19.6199 66.51 19.8199 66.97 20.1299C67.48 20.4799 67.9 20.9999 68.24 21.6699C68.6 22.3399 68.78 23.0399 68.78 23.7399C68.78 24.6199 68.69 25.4299 68.51 26.1499L68.52 26.1399Z" fill="white"/>
        <path d="M89.6498 38.59C89.2798 38.17 88.9598 37.61 88.6898 36.92L82.3798 21.1L81.0998 17.94H79.9598C78.8398 17.94 77.5998 17.88 76.2498 17.75L76.3498 18.07C76.9598 18.5 77.4298 18.97 77.7898 19.5C78.1698 20.02 78.3398 20.54 78.3398 21.07C78.3398 21.25 78.3198 21.37 78.2898 21.44L71.9698 36.78C71.6498 37.54 71.2498 38.14 70.7798 38.59C70.3098 39.03 69.7598 39.37 69.0998 39.6L68.7598 40.03C69.4698 39.92 70.0398 39.85 70.4898 39.82C70.9298 39.78 71.3498 39.76 71.7598 39.76C72.1198 39.76 72.4998 39.78 72.8998 39.82C73.3098 39.85 73.8098 39.91 74.4198 40V39.69C74.0998 39.39 73.9398 39.03 73.9398 38.63C73.9398 38.44 73.9598 38.27 73.9898 38.12C74.0198 37.96 74.0998 37.74 74.2298 37.43L76.5598 31.37C77.4298 31.28 78.4698 31.24 79.6898 31.24C80.5598 31.24 81.5498 31.29 82.6698 31.37L84.7098 36.95C84.7498 37.03 84.7798 37.16 84.8098 37.37C84.8698 37.57 84.8998 37.75 84.8998 37.93C84.8998 38.19 84.7298 38.55 84.3898 38.99C84.1598 39.29 84.0398 39.5 84.0398 39.63V40C84.8198 39.88 85.4898 39.8 86.0298 39.76C86.5798 39.71 87.1298 39.68 87.6798 39.68C88.1398 39.68 88.6398 39.71 89.1698 39.76C89.7198 39.82 90.3598 39.9 91.0798 40.03V39.6C90.5198 39.35 90.0398 39.02 89.6498 38.59ZM79.6398 29.99C79.1098 29.99 78.3098 29.97 77.2498 29.86L79.7398 23.7L82.0798 29.94C80.9798 29.98 80.1698 30 79.6398 30V29.99Z" fill="white"/>
        <path d="M95.2101 39.7299C94.7701 39.7299 94.3001 39.7499 93.8001 39.7799C93.3201 39.7899 92.7201 39.8399 91.9901 39.9099V39.5399C92.4501 39.2899 92.8101 38.9799 93.0801 38.6099C93.3501 38.2199 93.4901 37.7399 93.5001 37.1799C93.5401 35.4099 93.5601 32.7599 93.5601 29.2499C93.5601 27.8999 93.5401 26.5299 93.5001 25.1299C93.4601 23.7299 93.4101 22.3699 93.3501 21.0399C93.3101 20.3899 93.2001 19.8199 93.0001 19.3399C92.8101 18.8599 92.4201 18.4299 91.8301 18.0399V17.7199C92.6301 17.7899 93.2701 17.8399 93.7401 17.8799C94.2401 17.9099 94.7101 17.9299 95.1501 17.9299C95.4801 17.9299 96.0501 17.8999 96.8501 17.8499C97.5501 17.7999 98.0901 17.7599 98.4701 17.7499V18.0699C97.9701 18.3199 97.6201 18.7299 97.4101 19.2899C97.1901 19.8299 97.0601 20.4599 97.0101 21.1499C96.9601 21.9999 96.9201 22.8899 96.9101 23.8299V27.2799C97.9001 26.2899 98.8601 25.2699 99.7701 24.2299C100.71 23.1899 101.56 22.1599 102.33 21.1499C102.59 20.8099 102.81 20.4299 102.99 19.9999C103.18 19.5599 103.28 19.1399 103.28 18.7499C103.28 18.4299 103.23 18.1799 103.12 18.0099L103.44 17.6399C104.81 17.7599 105.79 17.8199 106.41 17.8199C106.75 17.8199 107.32 17.7899 108.14 17.7399L109.97 17.6399L109.65 18.0099C108.91 18.2699 108.16 18.6899 107.42 19.2599C106.68 19.8299 105.96 20.4499 105.27 21.1499C104.55 21.8699 103.8 22.6499 103.04 23.4599L100.2 26.5099C99.9901 26.7399 99.8301 26.9199 99.7201 27.0399C100.43 28.0499 101.63 29.5699 103.33 31.6099C103.95 32.3899 104.47 33.0299 104.9 33.5499C106.35 35.3999 107.52 36.7799 108.4 37.6599C109.31 38.5399 110.14 38.9899 110.9 38.9899C110.95 38.9899 111.03 38.9699 111.14 38.9399C111.25 38.8999 111.37 38.8699 111.51 38.8599C111.65 38.8299 111.85 38.8099 112.09 38.8099C112.41 38.8099 112.62 38.8499 112.7 38.9199C112.79 38.9699 112.84 39.0399 112.84 39.1299C112.84 39.2499 112.47 39.4499 111.75 39.7099C111.02 39.9699 110.24 40.1099 109.41 40.1099C108.58 40.1099 107.86 39.9999 107.21 39.7899C106.57 39.5599 106 39.2599 105.51 38.8899C105.02 38.4999 104.57 38.0899 104.18 37.6699C103.81 37.2299 103.35 36.6499 102.8 35.9399C102.43 35.4499 102.16 35.0999 102 34.8999C101.73 34.5699 101.43 34.1799 101.1 33.7299C100.29 32.6799 99.6101 31.8399 99.0801 31.1799C98.5501 30.5199 98.0401 29.9299 97.5401 29.3999C97.3901 29.5799 97.2401 29.7599 97.0601 29.9599C97.0001 30.0299 96.9501 30.0999 96.9001 30.1499C96.9201 32.1899 96.9801 34.4799 97.1101 37.0299C97.1601 38.2599 97.7001 39.0899 98.7001 39.5599V39.9299C97.8701 39.8599 97.1901 39.8099 96.6801 39.7999C96.1701 39.7599 95.6701 39.7499 95.2001 39.7499L95.2101 39.7299Z" fill="white"/>
        <path d="M117.271 39.79C116.831 39.79 116.361 39.8 115.861 39.84C115.381 39.86 114.771 39.9 114.031 39.97V39.6C114.511 39.35 114.881 39.04 115.151 38.67C115.411 38.28 115.551 37.8 115.571 37.24C115.611 35.47 115.621 32.82 115.621 29.3C115.621 27.96 115.601 26.58 115.571 25.19C115.541 23.79 115.491 22.44 115.411 21.13C115.371 20.47 115.261 19.91 115.061 19.43C114.871 18.93 114.481 18.49 113.891 18.11V17.79C114.701 17.86 115.351 17.91 115.831 17.95C116.311 17.98 116.771 18 117.211 18C117.551 18 118.111 17.98 118.911 17.92C119.601 17.86 120.141 17.83 120.531 17.81V18.13C120.041 18.38 119.681 18.79 119.471 19.35C119.261 19.9 119.121 20.52 119.071 21.21C119.021 21.88 118.981 22.58 118.961 23.3V29.22C118.961 31.66 119.031 34.28 119.171 37.08C119.221 38.28 119.751 39.13 120.741 39.61V39.98C119.911 39.91 119.241 39.87 118.731 39.85C118.231 39.81 117.741 39.8 117.271 39.8V39.79Z" fill="white"/>
        <path d="M129.131 40.1098C128.481 40.1098 127.881 40.0598 127.351 39.9498C126.821 39.8498 126.171 39.6698 125.411 39.4498C125.091 39.3598 124.881 39.2998 124.771 39.2598C124.291 39.1198 123.971 38.9198 123.811 38.6498C123.671 38.3598 123.601 37.9898 123.601 37.5098L123.571 37.2498C123.521 36.9998 123.471 36.7098 123.441 36.3998C123.401 36.0698 123.391 35.7498 123.391 35.4698C123.391 35.2398 123.461 35.0198 123.601 34.7798C123.761 34.5498 124.011 34.4398 124.371 34.4398C124.531 34.4398 124.661 34.5298 124.771 34.6998C124.891 34.8598 125.041 35.1398 125.221 35.5298C125.491 36.1498 125.711 36.5698 125.911 36.7998C126.371 37.3298 126.961 37.7698 127.691 38.1198C128.441 38.4798 129.071 38.6598 129.601 38.6598C130.011 38.6598 130.411 38.5898 130.821 38.4498C131.251 38.2898 131.641 38.0598 132.021 37.7598C132.391 37.4398 132.681 37.0398 132.901 36.5698C133.131 36.0898 133.241 35.5498 133.241 34.9498C133.241 34.3498 133.131 33.8298 132.901 33.3298C132.671 32.8298 132.351 32.3798 131.941 31.9698C131.551 31.5498 131.131 31.1598 130.671 30.7998C130.201 30.4498 129.621 30.0198 128.891 29.5298C128.111 28.9998 127.471 28.5398 126.981 28.1698C126.491 27.7798 126.011 27.3498 125.571 26.8698C125.151 26.3898 124.801 25.8698 124.541 25.2998C124.301 24.7198 124.171 24.0898 124.171 23.4198C124.171 22.7498 124.301 22.0798 124.541 21.4298C124.791 20.7698 125.161 20.1698 125.661 19.6298C126.171 19.0798 126.821 18.6398 127.601 18.2998C128.381 17.9598 129.281 17.7998 130.311 17.7998C130.771 17.7998 131.411 17.8798 132.241 18.0398C132.911 18.1798 133.391 18.2498 133.681 18.2498C133.701 18.2498 133.731 18.2298 133.781 18.1998C133.921 18.1298 134.071 18.0798 134.231 18.0398C134.411 17.9898 134.641 17.9598 134.951 17.9598C135.201 17.9598 135.371 17.9998 135.461 18.0898C135.561 18.1798 135.611 18.2598 135.611 18.3298C135.611 18.7698 135.651 19.4098 135.741 20.2698C135.811 21.0498 135.851 21.6298 135.851 22.0198C135.851 22.1198 135.801 22.2498 135.691 22.3898C135.581 22.5298 135.401 22.5998 135.161 22.5998C134.901 22.5998 134.671 22.4898 134.471 22.2598C134.281 22.0098 134.061 21.6698 133.811 21.2298C133.561 20.7998 133.391 20.5398 133.281 20.4298C132.791 20.0098 132.241 19.6998 131.661 19.4998C131.091 19.2998 130.541 19.2098 129.991 19.2098C129.311 19.2098 128.691 19.4898 128.101 20.0598C127.521 20.6198 127.221 21.2898 127.221 22.0498C127.221 22.9898 127.561 23.8198 128.231 24.5498C128.921 25.2598 129.981 26.1098 131.391 27.1198C132.181 27.6898 132.841 28.1798 133.351 28.6098C133.881 29.0098 134.381 29.4798 134.861 30.0098C135.341 30.5398 135.721 31.1198 136.001 31.7598C136.281 32.3798 136.431 33.0498 136.451 33.7798C136.451 34.5798 136.301 35.3598 136.001 36.1198C135.701 36.8598 135.241 37.5398 134.621 38.1298C134.021 38.7398 133.241 39.2298 132.311 39.5898C131.391 39.9398 130.331 40.1198 129.131 40.1198V40.1098Z" fill="white"/>
        <path d="M157.541 17.4599C157.491 17.7999 157.251 18.3799 156.831 19.2099C156.401 20.0799 156.151 20.7099 156.061 21.0999C156.041 21.2099 155.931 21.2999 155.711 21.3899C155.521 21.4599 155.361 21.4899 155.231 21.4899C154.981 21.4899 154.811 21.4099 154.731 21.2499C154.641 21.0899 154.581 20.8599 154.541 20.5599C154.521 20.3999 154.501 20.2999 154.491 20.2699C154.441 20.0199 154.331 19.8499 154.171 19.7399C154.031 19.6099 153.871 19.5499 153.691 19.5299C153.271 19.5099 152.591 19.4999 151.671 19.4999H149.571L149.441 21.2299C149.351 22.3799 149.311 23.8299 149.311 25.5899C149.311 26.1699 149.311 26.8199 149.341 27.5299V29.2599C149.341 31.6999 149.411 34.3099 149.551 37.1099C149.601 38.3199 150.121 39.1599 151.121 39.6299V39.9999C150.291 39.9299 149.621 39.8899 149.101 39.8699C148.611 39.8299 148.121 39.8199 147.641 39.8199C147.201 39.8199 146.731 39.8399 146.231 39.8699C145.761 39.8899 145.141 39.9299 144.401 39.9999V39.6299C144.881 39.3799 145.251 39.0799 145.521 38.6999C145.791 38.3099 145.931 37.8399 145.951 37.2599C145.991 35.4899 146.001 32.8499 146.001 29.3199V24.6599C146.001 23.3999 145.981 22.1199 145.951 20.8299L145.921 19.4999C145.001 19.4999 144.181 19.5299 143.461 19.5799C142.731 19.6299 142.021 19.7399 141.311 19.8999C141.101 19.9499 140.841 20.0499 140.541 20.1899C140.251 20.3399 139.961 20.5399 139.631 20.7999C139.601 20.8199 139.531 20.8699 139.441 20.9599C139.251 21.1299 139.061 21.2699 138.881 21.3799C138.701 21.4799 138.501 21.5399 138.271 21.5399C138.111 21.5399 137.951 21.4999 137.791 21.4399C137.631 21.3499 137.551 21.2899 137.551 21.2499C137.571 21.0999 137.721 20.8299 138.031 20.3999C138.351 19.9599 138.561 19.6199 138.671 19.3899C138.691 19.3399 138.751 19.2099 138.861 18.9899C139.161 18.4199 139.351 17.9599 139.441 17.5799H140.561C140.731 17.7699 140.891 17.8999 141.041 17.9499C141.181 17.9999 141.421 18.0399 141.781 18.0499C143.231 18.0699 145.401 18.0799 148.291 18.0799C149.241 18.0799 150.741 18.0399 152.781 17.9699L154.981 17.9199C155.271 17.8999 155.651 17.7999 156.121 17.6299C156.351 17.5399 156.531 17.4799 156.651 17.4399H157.551L157.541 17.4599Z" fill="white"/>
        <path d="M173.15 38.59C172.78 38.17 172.47 37.61 172.2 36.92L165.88 21.1L164.6 17.94H163.46C162.34 17.94 161.11 17.88 159.74 17.75L159.85 18.07C160.45 18.5 160.93 18.97 161.29 19.5C161.65 20.02 161.84 20.54 161.84 21.07C161.84 21.25 161.82 21.37 161.79 21.44L155.47 36.78C155.15 37.54 154.75 38.14 154.27 38.59C153.81 39.03 153.26 39.37 152.6 39.6L152.26 40.03C152.96 39.92 153.54 39.85 153.98 39.82C154.42 39.78 154.85 39.76 155.25 39.76C155.61 39.76 155.98 39.78 156.39 39.82C156.8 39.85 157.31 39.91 157.91 40V39.69C157.59 39.39 157.43 39.03 157.43 38.63C157.43 38.44 157.45 38.27 157.48 38.12C157.52 37.96 157.6 37.74 157.72 37.43L160.06 31.37C160.93 31.28 161.97 31.24 163.2 31.24C164.06 31.24 165.06 31.29 166.17 31.37L168.21 36.95C168.25 37.03 168.28 37.16 168.32 37.37C168.37 37.57 168.4 37.75 168.4 37.93C168.4 38.19 168.24 38.55 167.9 38.99C167.67 39.29 167.55 39.5 167.55 39.63V40C168.33 39.88 169 39.8 169.55 39.76C170.1 39.71 170.65 39.68 171.19 39.68C171.65 39.68 172.14 39.71 172.68 39.76C173.22 39.82 173.86 39.9 174.59 40.03V39.6C174.02 39.35 173.54 39.02 173.15 38.59ZM163.14 29.99C162.61 29.99 161.81 29.97 160.75 29.86L163.25 23.7L165.59 29.94C164.49 29.98 163.68 30 163.15 30L163.14 29.99Z" fill="white"/>
        <path d="M86.0388 66.9997C85.1788 66.9997 84.5187 66.6997 84.0687 66.0997C83.6087 65.4897 83.4488 64.6997 83.5788 63.7297C83.7088 62.7497 84.0787 61.9497 84.6987 61.3497C85.3187 60.7497 86.0687 60.4497 86.9487 60.4497C87.6287 60.4497 88.1888 60.6397 88.6188 61.0197C89.0588 61.3997 89.2888 61.8897 89.2888 62.4797H88.4788C88.4488 62.0697 88.2887 61.7497 87.9987 61.5297C87.7087 61.2997 87.2988 61.1897 86.7888 61.1897C86.1788 61.1897 85.6588 61.4297 85.2288 61.8897C84.7888 62.3597 84.5287 62.9797 84.4287 63.7397C84.3187 64.5497 84.4288 65.1797 84.7288 65.6197C85.0288 66.0597 85.5087 66.2797 86.1687 66.2797C86.8287 66.2797 87.3587 66.0497 87.8087 65.5797C87.8787 65.5097 87.9488 65.4297 88.0088 65.3497C88.0888 65.2397 88.1587 65.0897 88.2387 64.8797C88.3087 64.6897 88.3587 64.4997 88.3787 64.3197V64.2397H86.4487L86.5488 63.5297H89.2687L88.8387 66.8197H88.3187L88.2087 66.0397L88.1588 66.0997C87.5688 66.6997 86.8587 66.9997 86.0287 66.9997H86.0388Z" fill="white"/>
        <path d="M86.0388 66.9997C85.1788 66.9997 84.5187 66.6997 84.0687 66.0997C83.6087 65.4897 83.4488 64.6997 83.5788 63.7297C83.7088 62.7497 84.0787 61.9497 84.6987 61.3497C85.3187 60.7497 86.0687 60.4497 86.9487 60.4497C87.6287 60.4497 88.1888 60.6397 88.6188 61.0197C89.0588 61.3997 89.2888 61.8897 89.2888 62.4797H88.4788C88.4488 62.0697 88.2887 61.7497 87.9987 61.5297C87.7087 61.2997 87.2988 61.1897 86.7888 61.1897C86.1788 61.1897 85.6588 61.4297 85.2288 61.8897C84.7888 62.3597 84.5287 62.9797 84.4287 63.7397C84.3187 64.5497 84.4288 65.1797 84.7288 65.6197C85.0288 66.0597 85.5087 66.2797 86.1687 66.2797C86.8287 66.2797 87.3587 66.0497 87.8087 65.5797C87.8787 65.5097 87.9488 65.4297 88.0088 65.3497C88.0888 65.2397 88.1587 65.0897 88.2387 64.8797C88.3087 64.6897 88.3587 64.4997 88.3787 64.3197V64.2397H86.4487L86.5488 63.5297H89.2687L88.8387 66.8197H88.3187L88.2087 66.0397L88.1588 66.0997C87.5688 66.6997 86.8587 66.9997 86.0287 66.9997H86.0388Z" fill="white"/>
        <path d="M89.8281 66.8299L90.4181 62.3099H91.1481L91.0481 63.0799C91.1281 62.9599 91.2081 62.8499 91.2981 62.7499C91.6381 62.3599 92.0181 62.1699 92.4381 62.1699C92.5081 62.1699 92.5781 62.1699 92.6481 62.2099L92.5381 62.9899H92.3881C91.9781 62.9899 91.6481 63.1099 91.3881 63.3499C91.1281 63.5999 90.9781 63.9499 90.9181 64.4099L90.5981 66.8399H89.8381L89.8281 66.8299Z" fill="white"/>
        <path d="M89.8281 66.8299L90.4181 62.3099H91.1481L91.0481 63.0799C91.1281 62.9599 91.2081 62.8499 91.2981 62.7499C91.6381 62.3599 92.0181 62.1699 92.4381 62.1699C92.5081 62.1699 92.5781 62.1699 92.6481 62.2099L92.5381 62.9899H92.3881C91.9781 62.9899 91.6481 63.1099 91.3881 63.3499C91.1281 63.5999 90.9781 63.9499 90.9181 64.4099L90.5981 66.8399H89.8381L89.8281 66.8299Z" fill="white"/>
        <path d="M94.1302 66.9499C93.4902 66.9499 93.0102 66.7499 92.7002 66.3399C92.3902 65.9299 92.2802 65.3699 92.3702 64.6599C92.4702 63.8999 92.7402 63.2899 93.1802 62.8399C93.6202 62.3899 94.1802 62.1699 94.8302 62.1699C95.4202 62.1699 95.8702 62.3899 96.1802 62.8299C96.4902 63.2699 96.5902 63.8499 96.5002 64.5699L96.4602 64.8399H93.1602C93.1302 65.2799 93.1902 65.6299 93.3302 65.8699C93.5102 66.1599 93.8302 66.2999 94.2902 66.2999C94.5802 66.2999 94.8402 66.2199 95.0802 66.0599C95.3202 65.8999 95.4702 65.6899 95.5602 65.4399H96.3102C96.1302 65.9399 95.8602 66.3099 95.4902 66.5699C95.1202 66.8299 94.6702 66.9599 94.1302 66.9599V66.9499ZM95.7502 64.2199C95.7802 63.7999 95.7202 63.4699 95.5702 63.2399C95.4002 62.9799 95.1202 62.8499 94.7202 62.8499C94.3202 62.8499 93.9802 62.9999 93.7002 63.2899C93.4802 63.5199 93.3302 63.8299 93.2402 64.2099H95.7602L95.7502 64.2199Z" fill="white"/>
        <path d="M94.1302 66.9499C93.4902 66.9499 93.0102 66.7499 92.7002 66.3399C92.3902 65.9299 92.2802 65.3699 92.3702 64.6599C92.4702 63.8999 92.7402 63.2899 93.1802 62.8399C93.6202 62.3899 94.1802 62.1699 94.8302 62.1699C95.4202 62.1699 95.8702 62.3899 96.1802 62.8299C96.4902 63.2699 96.5902 63.8499 96.5002 64.5699L96.4602 64.8399H93.1602C93.1302 65.2799 93.1902 65.6299 93.3302 65.8699C93.5102 66.1599 93.8302 66.2999 94.2902 66.2999C94.5802 66.2999 94.8402 66.2199 95.0802 66.0599C95.3202 65.8999 95.4702 65.6899 95.5602 65.4399H96.3102C96.1302 65.9399 95.8602 66.3099 95.4902 66.5699C95.1202 66.8299 94.6702 66.9599 94.1302 66.9599V66.9499ZM95.7502 64.2199C95.7802 63.7999 95.7202 63.4699 95.5702 63.2399C95.4002 62.9799 95.1202 62.8499 94.7202 62.8499C94.3202 62.8499 93.9802 62.9999 93.7002 63.2899C93.4802 63.5199 93.3302 63.8299 93.2402 64.2099H95.7602L95.7502 64.2199Z" fill="white"/>
        <path d="M97.9787 66.9497C97.5387 66.9497 97.1987 66.8297 96.9787 66.5897C96.7487 66.3497 96.6587 66.0297 96.7087 65.6297C96.7587 65.2197 96.9287 64.8997 97.1987 64.6597C97.4787 64.4197 97.8487 64.2697 98.3287 64.2197L99.3787 64.0897C99.4687 64.0897 99.5487 64.0697 99.6287 64.0497C99.7287 64.0197 99.8187 63.9697 99.8787 63.8997C99.9387 63.8197 99.9787 63.7297 99.9987 63.6097V63.5697C100.039 63.3297 99.9687 63.1397 99.8087 62.9997C99.6387 62.8597 99.3987 62.7897 99.0687 62.7897C98.7587 62.7897 98.5087 62.8597 98.3087 63.0097C98.1087 63.1497 97.9787 63.3697 97.9087 63.6597H97.2087C97.2987 63.1697 97.5287 62.7897 97.8687 62.5497C98.2187 62.2997 98.6787 62.1797 99.2587 62.1797C99.8087 62.1797 100.219 62.2997 100.469 62.5397C100.729 62.7797 100.829 63.1297 100.759 63.5797L100.439 66.0697C100.429 66.1497 100.439 66.2097 100.489 66.2497C100.529 66.2997 100.589 66.3197 100.669 66.3197C100.689 66.3197 100.719 66.3197 100.769 66.3197C100.809 66.3197 100.859 66.3097 100.909 66.2997L100.839 66.8497C100.759 66.8797 100.679 66.8997 100.599 66.9197C100.509 66.9397 100.449 66.9497 100.389 66.9497C100.099 66.9497 99.9087 66.8697 99.7987 66.7097C99.7287 66.6097 99.6787 66.4597 99.6787 66.2697C99.6087 66.3397 99.5387 66.4097 99.4587 66.4697C99.0387 66.8097 98.5487 66.9797 97.9987 66.9797L97.9787 66.9497ZM99.8087 65.0397L99.8687 64.5497C99.7187 64.6197 99.5587 64.6697 99.3787 64.6897L98.6687 64.7997C98.2887 64.8497 98.0187 64.9297 97.8287 65.0497C97.6487 65.1697 97.5387 65.3397 97.5187 65.5397C97.4787 65.7897 97.5187 65.9897 97.6487 66.1297C97.7687 66.2697 97.9587 66.3397 98.2087 66.3397C98.6087 66.3397 98.9587 66.2297 99.2687 66.0197C99.4787 65.8597 99.6287 65.6897 99.7087 65.4997C99.7187 65.4597 99.7387 65.4097 99.7587 65.3297C99.7787 65.2497 99.7987 65.1597 99.8087 65.0597V65.0397Z" fill="white"/>
        <path d="M97.9787 66.9497C97.5387 66.9497 97.1987 66.8297 96.9787 66.5897C96.7487 66.3497 96.6587 66.0297 96.7087 65.6297C96.7587 65.2197 96.9287 64.8997 97.1987 64.6597C97.4787 64.4197 97.8487 64.2697 98.3287 64.2197L99.3787 64.0897C99.4687 64.0897 99.5487 64.0697 99.6287 64.0497C99.7287 64.0197 99.8187 63.9697 99.8787 63.8997C99.9387 63.8197 99.9787 63.7297 99.9987 63.6097V63.5697C100.039 63.3297 99.9687 63.1397 99.8087 62.9997C99.6387 62.8597 99.3987 62.7897 99.0687 62.7897C98.7587 62.7897 98.5087 62.8597 98.3087 63.0097C98.1087 63.1497 97.9787 63.3697 97.9087 63.6597H97.2087C97.2987 63.1697 97.5287 62.7897 97.8687 62.5497C98.2187 62.2997 98.6787 62.1797 99.2587 62.1797C99.8087 62.1797 100.219 62.2997 100.469 62.5397C100.729 62.7797 100.829 63.1297 100.759 63.5797L100.439 66.0697C100.429 66.1497 100.439 66.2097 100.489 66.2497C100.529 66.2997 100.589 66.3197 100.669 66.3197C100.689 66.3197 100.719 66.3197 100.769 66.3197C100.809 66.3197 100.859 66.3097 100.909 66.2997L100.839 66.8497C100.759 66.8797 100.679 66.8997 100.599 66.9197C100.509 66.9397 100.449 66.9497 100.389 66.9497C100.099 66.9497 99.9087 66.8697 99.7987 66.7097C99.7287 66.6097 99.6787 66.4597 99.6787 66.2697C99.6087 66.3397 99.5387 66.4097 99.4587 66.4697C99.0387 66.8097 98.5487 66.9797 97.9987 66.9797L97.9787 66.9497ZM99.8087 65.0397L99.8687 64.5497C99.7187 64.6197 99.5587 64.6697 99.3787 64.6897L98.6687 64.7997C98.2887 64.8497 98.0187 64.9297 97.8287 65.0497C97.6487 65.1697 97.5387 65.3397 97.5187 65.5397C97.4787 65.7897 97.5187 65.9897 97.6487 66.1297C97.7687 66.2697 97.9587 66.3397 98.2087 66.3397C98.6087 66.3397 98.9587 66.2297 99.2687 66.0197C99.4787 65.8597 99.6287 65.6897 99.7087 65.4997C99.7187 65.4597 99.7387 65.4097 99.7587 65.3297C99.7787 65.2497 99.7987 65.1597 99.8087 65.0597V65.0397Z" fill="white"/>
        <path d="M102.969 66.8198C102.699 66.8598 102.509 66.8798 102.389 66.8798C102.049 66.8798 101.829 66.8098 101.719 66.6598C101.599 66.5198 101.559 66.2598 101.609 65.9098L101.999 62.9198H101.379L101.459 62.3098H102.079L102.249 61.0398H103.009L102.839 62.3098H103.559L103.479 62.9198H102.759L102.369 65.8998C102.349 65.9998 102.379 66.0798 102.459 66.1398C102.529 66.1998 102.629 66.2298 102.769 66.2298H103.039L102.969 66.8098V66.8198Z" fill="white"/>
        <path d="M102.969 66.8198C102.699 66.8598 102.509 66.8798 102.389 66.8798C102.049 66.8798 101.829 66.8098 101.719 66.6598C101.599 66.5198 101.559 66.2598 101.609 65.9098L101.999 62.9198H101.379L101.459 62.3098H102.079L102.249 61.0398H103.009L102.839 62.3098H103.559L103.479 62.9198H102.759L102.369 65.8998C102.349 65.9998 102.379 66.0798 102.459 66.1398C102.529 66.1998 102.629 66.2298 102.769 66.2298H103.039L102.969 66.8098V66.8198Z" fill="white"/>
        <path d="M105.688 66.8296L106.487 60.6196H109.207C109.807 60.6196 110.257 60.7696 110.557 61.0796C110.857 61.3796 110.978 61.7996 110.908 62.3296C110.828 62.9196 110.597 63.3796 110.217 63.7096C109.837 64.0396 109.347 64.2096 108.747 64.2096C107.957 64.2096 107.328 64.2096 106.868 64.2096L106.527 66.8196H105.688V66.8296ZM106.957 63.4896H108.627C109.067 63.4896 109.398 63.3996 109.618 63.2096C109.848 63.0296 109.987 62.7396 110.037 62.3396C110.087 61.9896 110.017 61.7296 109.827 61.5796C109.647 61.4096 109.338 61.3296 108.908 61.3296H107.237L106.957 63.4796V63.4896Z" fill="white"/>
        <path d="M105.688 66.8296L106.487 60.6196H109.207C109.807 60.6196 110.257 60.7696 110.557 61.0796C110.857 61.3796 110.978 61.7996 110.908 62.3296C110.828 62.9196 110.597 63.3796 110.217 63.7096C109.837 64.0396 109.347 64.2096 108.747 64.2096C107.957 64.2096 107.328 64.2096 106.868 64.2096L106.527 66.8196H105.688V66.8296ZM106.957 63.4896H108.627C109.067 63.4896 109.398 63.3996 109.618 63.2096C109.848 63.0296 109.987 62.7396 110.037 62.3396C110.087 61.9896 110.017 61.7296 109.827 61.5796C109.647 61.4096 109.338 61.3296 108.908 61.3296H107.237L106.957 63.4796V63.4896Z" fill="white"/>
        <path d="M112.788 66.9499C112.148 66.9499 111.668 66.7499 111.358 66.3399C111.048 65.9299 110.938 65.3699 111.028 64.6599C111.128 63.8999 111.398 63.2899 111.848 62.8399C112.298 62.3899 112.838 62.1699 113.498 62.1699C114.088 62.1699 114.538 62.3899 114.838 62.8299C115.148 63.2699 115.248 63.8499 115.158 64.5699L115.118 64.8399H111.818C111.788 65.2799 111.848 65.6299 111.998 65.8699C112.178 66.1599 112.488 66.2999 112.948 66.2999C113.238 66.2999 113.498 66.2199 113.738 66.0599C113.978 65.8999 114.138 65.6899 114.218 65.4399H114.978C114.798 65.9399 114.528 66.3099 114.158 66.5699C113.788 66.8299 113.338 66.9599 112.798 66.9599L112.788 66.9499ZM114.408 64.2199C114.448 63.7999 114.378 63.4699 114.218 63.2399C114.048 62.9799 113.758 62.8499 113.368 62.8499C112.978 62.8499 112.628 62.9999 112.348 63.2899C112.128 63.5199 111.978 63.8299 111.888 64.2099H114.408V64.2199Z" fill="white"/>
        <path d="M112.788 66.9499C112.148 66.9499 111.668 66.7499 111.358 66.3399C111.048 65.9299 110.938 65.3699 111.028 64.6599C111.128 63.8999 111.398 63.2899 111.848 62.8399C112.298 62.3899 112.838 62.1699 113.498 62.1699C114.088 62.1699 114.538 62.3899 114.838 62.8299C115.148 63.2699 115.248 63.8499 115.158 64.5699L115.118 64.8399H111.818C111.788 65.2799 111.848 65.6299 111.998 65.8699C112.178 66.1599 112.488 66.2999 112.948 66.2999C113.238 66.2999 113.498 66.2199 113.738 66.0599C113.978 65.8999 114.138 65.6899 114.218 65.4399H114.978C114.798 65.9399 114.528 66.3099 114.158 66.5699C113.788 66.8299 113.338 66.9599 112.798 66.9599L112.788 66.9499ZM114.408 64.2199C114.448 63.7999 114.378 63.4699 114.218 63.2399C114.048 62.9799 113.758 62.8499 113.368 62.8499C112.978 62.8499 112.628 62.9999 112.348 63.2899C112.128 63.5199 111.978 63.8299 111.888 64.2099H114.408V64.2199Z" fill="white"/>
        <path d="M117.3 66.9497C116.68 66.9497 116.19 66.7297 115.86 66.2897C115.53 65.8497 115.41 65.2797 115.5 64.5597C115.6 63.8397 115.86 63.2697 116.31 62.8297C116.75 62.3897 117.29 62.1697 117.91 62.1697C118.53 62.1697 119.02 62.3897 119.35 62.8297C119.68 63.2697 119.8 63.8497 119.71 64.5597C119.62 65.2697 119.34 65.8497 118.91 66.2897C118.47 66.7297 117.93 66.9497 117.3 66.9497ZM117.38 66.2897C117.78 66.2897 118.12 66.1297 118.4 65.8197C118.68 65.5097 118.85 65.0797 118.92 64.5597C118.99 64.0297 118.92 63.6097 118.73 63.2897C118.53 62.9797 118.24 62.8197 117.84 62.8197C117.44 62.8197 117.1 62.9797 116.82 63.2897C116.55 63.5997 116.37 64.0297 116.3 64.5597C116.23 65.0897 116.3 65.5097 116.49 65.8197C116.69 66.1297 116.98 66.2897 117.38 66.2897Z" fill="white"/>
        <path d="M117.3 66.9497C116.68 66.9497 116.19 66.7297 115.86 66.2897C115.53 65.8497 115.41 65.2797 115.5 64.5597C115.6 63.8397 115.86 63.2697 116.31 62.8297C116.75 62.3897 117.29 62.1697 117.91 62.1697C118.53 62.1697 119.02 62.3897 119.35 62.8297C119.68 63.2697 119.8 63.8497 119.71 64.5597C119.62 65.2697 119.34 65.8497 118.91 66.2897C118.47 66.7297 117.93 66.9497 117.3 66.9497ZM117.38 66.2897C117.78 66.2897 118.12 66.1297 118.4 65.8197C118.68 65.5097 118.85 65.0797 118.92 64.5597C118.99 64.0297 118.92 63.6097 118.73 63.2897C118.53 62.9797 118.24 62.8197 117.84 62.8197C117.44 62.8197 117.1 62.9797 116.82 63.2897C116.55 63.5997 116.37 64.0297 116.3 64.5597C116.23 65.0897 116.3 65.5097 116.49 65.8197C116.69 66.1297 116.98 66.2897 117.38 66.2897Z" fill="white"/>
        <path d="M120.499 62.3099H121.219L121.139 62.9499L121.189 62.8999C121.579 62.4199 122.039 62.1699 122.569 62.1699C123.159 62.1699 123.599 62.3699 123.889 62.7799C124.179 63.1899 124.279 63.7399 124.199 64.4299C124.099 65.2099 123.839 65.8299 123.439 66.2799C123.029 66.7199 122.519 66.9499 121.909 66.9499C121.399 66.9499 121.019 66.7499 120.769 66.3599L120.749 66.3299L120.459 68.6199H119.699L120.519 62.3099H120.499ZM121.949 66.2899C122.349 66.2899 122.659 66.1399 122.909 65.8399C123.159 65.5399 123.319 65.0999 123.389 64.5199C123.459 63.9499 123.419 63.5299 123.259 63.2599C123.089 62.9899 122.809 62.8499 122.389 62.8499C121.969 62.8499 121.649 63.0099 121.409 63.3199C121.179 63.6299 121.019 64.1099 120.929 64.7799C120.869 65.2599 120.929 65.6399 121.099 65.8999C121.269 66.1599 121.549 66.2899 121.939 66.2899H121.949Z" fill="white"/>
        <path d="M120.499 62.3099H121.219L121.139 62.9499L121.189 62.8999C121.579 62.4199 122.039 62.1699 122.569 62.1699C123.159 62.1699 123.599 62.3699 123.889 62.7799C124.179 63.1899 124.279 63.7399 124.199 64.4299C124.099 65.2099 123.839 65.8299 123.439 66.2799C123.029 66.7199 122.519 66.9499 121.909 66.9499C121.399 66.9499 121.019 66.7499 120.769 66.3599L120.749 66.3299L120.459 68.6199H119.699L120.519 62.3099H120.499ZM121.949 66.2899C122.349 66.2899 122.659 66.1399 122.909 65.8399C123.159 65.5399 123.319 65.0999 123.389 64.5199C123.459 63.9499 123.419 63.5299 123.259 63.2599C123.089 62.9899 122.809 62.8499 122.389 62.8499C121.969 62.8499 121.649 63.0099 121.409 63.3199C121.179 63.6299 121.019 64.1099 120.929 64.7799C120.869 65.2599 120.929 65.6399 121.099 65.8999C121.269 66.1599 121.549 66.2899 121.939 66.2899H121.949Z" fill="white"/>
        <path d="M124.488 66.8296L125.298 60.6196H125.678H126.058L125.258 66.8296H124.868H124.488Z" fill="white"/>
        <path d="M124.488 66.8296L125.298 60.6196H125.678H126.058L125.258 66.8296H124.868H124.488Z" fill="white"/>
        <path d="M127.919 66.9499C127.279 66.9499 126.799 66.7499 126.489 66.3399C126.179 65.9299 126.059 65.3699 126.159 64.6599C126.259 63.8999 126.539 63.2899 126.969 62.8399C127.419 62.3899 127.969 62.1699 128.619 62.1699C129.209 62.1699 129.659 62.3899 129.959 62.8299C130.259 63.2699 130.369 63.8499 130.279 64.5699L130.239 64.8399H126.939C126.909 65.2799 126.969 65.6299 127.119 65.8699C127.289 66.1599 127.609 66.2999 128.069 66.2999C128.369 66.2999 128.619 66.2199 128.859 66.0599C129.099 65.8999 129.259 65.6899 129.339 65.4399H130.089C129.909 65.9399 129.639 66.3099 129.269 66.5699C128.889 66.8299 128.439 66.9599 127.909 66.9599L127.919 66.9499ZM129.549 64.2199C129.589 63.7999 129.519 63.4699 129.359 63.2399C129.189 62.9799 128.899 62.8499 128.509 62.8499C128.119 62.8499 127.769 62.9999 127.489 63.2899C127.279 63.5199 127.119 63.8299 127.029 64.2099H129.549V64.2199Z" fill="white"/>
        <path d="M127.919 66.9499C127.279 66.9499 126.799 66.7499 126.489 66.3399C126.179 65.9299 126.059 65.3699 126.159 64.6599C126.259 63.8999 126.539 63.2899 126.969 62.8399C127.419 62.3899 127.969 62.1699 128.619 62.1699C129.209 62.1699 129.659 62.3899 129.959 62.8299C130.259 63.2699 130.369 63.8499 130.279 64.5699L130.239 64.8399H126.939C126.909 65.2799 126.969 65.6299 127.119 65.8699C127.289 66.1599 127.609 66.2999 128.069 66.2999C128.369 66.2999 128.619 66.2199 128.859 66.0599C129.099 65.8999 129.259 65.6899 129.339 65.4399H130.089C129.909 65.9399 129.639 66.3099 129.269 66.5699C128.889 66.8299 128.439 66.9599 127.909 66.9599L127.919 66.9499ZM129.549 64.2199C129.589 63.7999 129.519 63.4699 129.359 63.2399C129.189 62.9799 128.899 62.8499 128.509 62.8499C128.119 62.8499 127.769 62.9999 127.489 63.2899C127.279 63.5199 127.119 63.8299 127.029 64.2099H129.549V64.2199Z" fill="white"/>
        <path d="M134.348 66.8198C134.088 66.8598 133.888 66.8798 133.778 66.8798C133.438 66.8798 133.218 66.8098 133.098 66.6598C132.978 66.5198 132.948 66.2598 132.988 65.9098L133.378 62.9198H132.758L132.838 62.3098H133.458L133.618 61.0398H134.378L134.218 62.3098H134.928L134.848 62.9198H134.128L133.738 65.8998C133.728 65.9998 133.758 66.0798 133.828 66.1398C133.898 66.1998 134.008 66.2298 134.138 66.2298H134.408L134.328 66.8098L134.348 66.8198Z" fill="white"/>
        <path d="M134.348 66.8198C134.088 66.8598 133.888 66.8798 133.778 66.8798C133.438 66.8798 133.218 66.8098 133.098 66.6598C132.978 66.5198 132.948 66.2598 132.988 65.9098L133.378 62.9198H132.758L132.838 62.3098H133.458L133.618 61.0398H134.378L134.218 62.3098H134.928L134.848 62.9198H134.128L133.738 65.8998C133.728 65.9998 133.758 66.0798 133.828 66.1398C133.898 66.1998 134.008 66.2298 134.138 66.2298H134.408L134.328 66.8098L134.348 66.8198Z" fill="white"/>
        <path d="M136.619 66.9497C135.999 66.9497 135.519 66.7297 135.179 66.2897C134.849 65.8497 134.729 65.2797 134.829 64.5597C134.919 63.8397 135.189 63.2697 135.629 62.8297C136.079 62.3897 136.609 62.1697 137.239 62.1697C137.869 62.1697 138.349 62.3897 138.679 62.8297C139.009 63.2697 139.129 63.8497 139.029 64.5597C138.939 65.2697 138.669 65.8497 138.229 66.2897C137.779 66.7297 137.249 66.9497 136.619 66.9497ZM136.709 66.2897C137.109 66.2897 137.449 66.1297 137.719 65.8197C137.999 65.5097 138.169 65.0797 138.239 64.5597C138.299 64.0297 138.239 63.6097 138.049 63.2897C137.849 62.9797 137.559 62.8197 137.159 62.8197C136.759 62.8197 136.419 62.9797 136.149 63.2897C135.869 63.5997 135.699 64.0297 135.629 64.5597C135.559 65.0897 135.629 65.5097 135.819 65.8197C136.019 66.1297 136.309 66.2897 136.709 66.2897Z" fill="white"/>
        <path d="M136.619 66.9497C135.999 66.9497 135.519 66.7297 135.179 66.2897C134.849 65.8497 134.729 65.2797 134.829 64.5597C134.919 63.8397 135.189 63.2697 135.629 62.8297C136.079 62.3897 136.609 62.1697 137.239 62.1697C137.869 62.1697 138.349 62.3897 138.679 62.8297C139.009 63.2697 139.129 63.8497 139.029 64.5597C138.939 65.2697 138.669 65.8497 138.229 66.2897C137.779 66.7297 137.249 66.9497 136.619 66.9497ZM136.709 66.2897C137.109 66.2897 137.449 66.1297 137.719 65.8197C137.999 65.5097 138.169 65.0797 138.239 64.5597C138.299 64.0297 138.239 63.6097 138.049 63.2897C137.849 62.9797 137.559 62.8197 137.159 62.8197C136.759 62.8197 136.419 62.9797 136.149 63.2897C135.869 63.5997 135.699 64.0297 135.629 64.5597C135.559 65.0897 135.629 65.5097 135.819 65.8197C136.019 66.1297 136.309 66.2897 136.709 66.2897Z" fill="white"/>
        <path d="M141.578 66.8296L142.388 60.6196H146.678L146.638 60.9896L146.588 61.3596H143.128L142.888 63.2596H145.908L145.858 63.6296L145.818 63.9996H142.778L142.418 66.8296H141.998H141.578Z" fill="white"/>
        <path d="M141.578 66.8296L142.388 60.6196H146.678L146.638 60.9896L146.588 61.3596H143.128L142.888 63.2596H145.908L145.858 63.6296L145.818 63.9996H142.778L142.418 66.8296H141.998H141.578Z" fill="white"/>
        <path d="M146.389 66.8296L147.189 60.6196H147.579H147.949L147.149 66.8296H146.759H146.389Z" fill="white"/>
        <path d="M146.389 66.8296L147.189 60.6196H147.579H147.949L147.149 66.8296H146.759H146.389Z" fill="white"/>
        <path d="M152.229 62.3098L149.899 66.9798C149.549 67.6798 149.249 68.1298 149.019 68.3498C148.789 68.5598 148.459 68.6698 148.049 68.6698C147.919 68.6698 147.789 68.6698 147.689 68.6298L147.779 67.9198C147.889 67.9598 148.029 67.9898 148.209 67.9898C148.379 67.9898 148.529 67.9198 148.669 67.7798C148.799 67.6398 148.969 67.3698 149.169 66.9798L149.189 66.9098L148.109 62.3198H148.979L149.699 66.0498L151.409 62.3198H152.239L152.229 62.3098Z" fill="white"/>
        <path d="M152.229 62.3098L149.899 66.9798C149.549 67.6798 149.249 68.1298 149.019 68.3498C148.789 68.5598 148.459 68.6698 148.049 68.6698C147.919 68.6698 147.789 68.6698 147.689 68.6298L147.779 67.9198C147.889 67.9598 148.029 67.9898 148.209 67.9898C148.379 67.9898 148.529 67.9198 148.669 67.7798C148.799 67.6398 148.969 67.3698 149.169 66.9798L149.189 66.9098L148.109 62.3198H148.979L149.699 66.0498L151.409 62.3198H152.239L152.229 62.3098Z" fill="white"/>
        <path d="M155.299 66.8296L154.479 60.6196H155.389L155.859 65.5296C155.859 65.6196 155.879 65.6996 155.879 65.7696C155.879 65.8396 155.879 65.8996 155.879 65.9196C155.879 65.9196 155.899 65.8296 155.919 65.7496C155.939 65.6796 155.969 65.5996 155.999 65.5196L157.949 60.6096H158.899L159.569 65.4896C159.579 65.5696 159.589 65.6396 159.589 65.7196C159.589 65.7996 159.589 65.8596 159.589 65.8896C159.589 65.8896 159.609 65.7996 159.629 65.7296C159.659 65.6496 159.679 65.5696 159.709 65.4896L161.469 60.6096H162.369L159.939 66.8196H159.039L158.319 62.0096C158.309 61.9296 158.299 61.8496 158.289 61.7696C158.289 61.6896 158.289 61.6296 158.289 61.6096C158.289 61.6096 158.269 61.6996 158.249 61.7796C158.219 61.8596 158.199 61.9396 158.159 62.0096L156.219 66.8196H155.319L155.299 66.8296Z" fill="white"/>
        <path d="M155.299 66.8296L154.479 60.6196H155.389L155.859 65.5296C155.859 65.6196 155.879 65.6996 155.879 65.7696C155.879 65.8396 155.879 65.8996 155.879 65.9196C155.879 65.9196 155.899 65.8296 155.919 65.7496C155.939 65.6796 155.969 65.5996 155.999 65.5196L157.949 60.6096H158.899L159.569 65.4896C159.579 65.5696 159.589 65.6396 159.589 65.7196C159.589 65.7996 159.589 65.8596 159.589 65.8896C159.589 65.8896 159.609 65.7996 159.629 65.7296C159.659 65.6496 159.679 65.5696 159.709 65.4896L161.469 60.6096H162.369L159.939 66.8196H159.039L158.319 62.0096C158.309 61.9296 158.299 61.8496 158.289 61.7696C158.289 61.6896 158.289 61.6296 158.289 61.6096C158.289 61.6096 158.269 61.6996 158.249 61.7796C158.219 61.8596 158.199 61.9396 158.159 62.0096L156.219 66.8196H155.319L155.299 66.8296Z" fill="white"/>
        <path d="M161.988 66.8296L162.578 62.3096H163.338L162.748 66.8296H161.988ZM162.778 60.6096H163.558L163.438 61.4796H162.658L162.768 60.6096H162.778Z" fill="white"/>
        <path d="M161.988 66.8296L162.578 62.3096H163.338L162.748 66.8296H161.988ZM162.778 60.6096H163.558L163.438 61.4796H162.658L162.768 60.6096H162.778Z" fill="white"/>
        <path d="M165.229 66.8198C164.969 66.8598 164.769 66.8798 164.659 66.8798C164.319 66.8798 164.099 66.8098 163.979 66.6598C163.869 66.5198 163.829 66.2598 163.879 65.9098L164.259 62.9198H163.639L163.719 62.3098H164.339L164.509 61.0398H165.269L165.099 62.3098H165.819L165.739 62.9198H165.019L164.639 65.8998C164.619 65.9998 164.659 66.0798 164.719 66.1398C164.789 66.1998 164.899 66.2298 165.039 66.2298H165.309L165.229 66.8098V66.8198Z" fill="white"/>
        <path d="M165.229 66.8198C164.969 66.8598 164.769 66.8798 164.659 66.8798C164.319 66.8798 164.099 66.8098 163.979 66.6598C163.869 66.5198 163.829 66.2598 163.879 65.9098L164.259 62.9198H163.639L163.719 62.3098H164.339L164.509 61.0398H165.269L165.099 62.3098H165.819L165.739 62.9198H165.019L164.639 65.8998C164.619 65.9998 164.659 66.0798 164.719 66.1398C164.789 66.1998 164.899 66.2298 165.039 66.2298H165.309L165.229 66.8098V66.8198Z" fill="white"/>
        <path d="M165.668 66.8296L166.478 60.6196H167.238L166.948 62.9196L167.098 62.7496C167.478 62.3596 167.918 62.1696 168.408 62.1696C168.898 62.1696 169.278 62.3096 169.508 62.5796C169.748 62.8496 169.828 63.2296 169.768 63.7396L169.358 66.8396H168.598L168.978 63.9296C169.028 63.5496 168.978 63.2796 168.868 63.1196C168.748 62.9596 168.528 62.8696 168.198 62.8696C167.818 62.8696 167.498 63.0096 167.238 63.2896C166.978 63.5696 166.818 63.9496 166.758 64.4196L166.448 66.8496H165.688L165.668 66.8296Z" fill="white"/>
        <path d="M165.668 66.8296L166.478 60.6196H167.238L166.948 62.9196L167.098 62.7496C167.478 62.3596 167.918 62.1696 168.408 62.1696C168.898 62.1696 169.278 62.3096 169.508 62.5796C169.748 62.8496 169.828 63.2296 169.768 63.7396L169.358 66.8396H168.598L168.978 63.9296C169.028 63.5496 168.978 63.2796 168.868 63.1196C168.748 62.9596 168.528 62.8696 168.198 62.8696C167.818 62.8696 167.498 63.0096 167.238 63.2896C166.978 63.5696 166.818 63.9496 166.758 64.4196L166.448 66.8496H165.688L165.668 66.8296Z" fill="white"/>
        <path d="M135.43 73.3896C145 69.1896 153.29 69.5796 153.25 70.7396C153.21 72.1396 148.02 68.9696 135.43 73.3896Z" fill="white"/>
        <path d="M135.43 73.3896C145 69.1896 153.29 69.5796 153.25 70.7396C153.21 72.1396 148.02 68.9696 135.43 73.3896Z" fill="white"/>
    </g>
    <defs>
        <clipPath id="clip0_430_7057">
            <rect width="196" height="88" fill="white"/>
        </clipPath>
    </defs>
</svg>
