<svg width="1440" height="497" viewBox="0 0 1440 497" fill="none" xmlns="http://www.w3.org/2000/svg">
    <g clip-path="url(#clip0_613_5101)">
        <path d="M0 66.0002V497H1440V80.5C1341.47 63.7065 1095.18 42.3189 905 21C716.229 -0.160538 233 31.5 0 66.0002Z" fill="white"/>
    </g>
    <g clip-path="url(#clip1_613_5101)">
        <path d="M-70.0638 85.7832C24.689 65.9171 147.916 44.3394 293.259 29.9041C489.034 10.4649 637.965 11.8485 730 13.5C974.844 17.8801 1148.2 40.8918 1316.66 63.3577C1403.87 74.9804 1494.55 89.1336 1545.19 97.5062L1544.93 99.6193C1493.14 92.0952 1421.02 81.9645 1334.71 71.0156C1211.86 55.4362 1114.42 43.0524 995.097 33.857C911.094 27.3933 821.682 20.4996 704.789 20.9982C542.69 21.6872 421.091 36.2081 275.288 53.6079C191.072 63.6591 93.5016 77.1713 -14.8378 95.6716C-33.2551 92.365 -51.6723 89.0585 -70.0896 85.7518L-70.0638 85.7832Z" fill="#AA9113"/>
        <path d="M-123.604 73.6432C-28.8511 53.7771 94.3757 32.1993 239.719 17.764C317.255 10.0639 376.867 6.82271 399.596 5.7127C466.41 2.38546 550.191 0.35421 678.956 4.20282C798.118 7.76166 1009.47 17.9862 1281.45 53.9982C1370.26 65.7579 1427.65 75.9297 1476.18 84.0177L1487.83 88.7758C1437.58 81.3537 1368.65 69.8599 1281.12 58.9316C1167.67 44.7749 1067.2 32.1866 941.305 23.4929C881.568 19.38 783.197 12.7825 654.985 13.3478C466.487 14.1934 323.092 29.9941 221.718 41.4642C141.17 50.5773 43.0405 63.7958 -68.4072 83.528C-86.8245 80.2215 -105.242 76.9149 -123.659 73.6083L-123.604 73.6432Z" fill="#006937"/>
    </g>
    <defs>
        <clipPath id="clip0_613_5101">
            <rect width="1440" height="529" fill="white" transform="translate(0 -32)"/>
        </clipPath>
        <clipPath id="clip1_613_5101">
            <rect width="1659" height="223.417" fill="white" transform="matrix(-0.99464 -0.103395 -0.103395 0.99464 1547.21 70.5317)"/>
        </clipPath>
    </defs>
</svg>
